<?xml version="1.0" encoding="UTF-8" standalone="no"?>
<!DOCTYPE svg PUBLIC "-//W3C//DTD SVG 1.1//EN" "http://www.w3.org/Graphics/SVG/1.1/DTD/svg11.dtd">
<svg width="100%" height="100%" viewBox="0 0 600 600" version="1.1" xmlns="http://www.w3.org/2000/svg" xmlns:xlink="http://www.w3.org/1999/xlink" xml:space="preserve" xmlns:serif="http://www.serif.com/" style="fill-rule:evenodd;clip-rule:evenodd;stroke-linejoin:round;stroke-miterlimit:2;">
    <g id="Layer-1" serif:id="Layer 1" transform="matrix(4.16667,0,0,4.16667,0,0)">
        <g transform="matrix(1,0,0,1,0,107.832)">
            <rect x="52.72" y="11.612" width="2.614" height="12.944" style="fill:white;"/>
        </g>
        <g transform="matrix(1,0,0,1,60.7383,119.45)">
            <path d="M0,12.943L0,2.189L-3.84,2.189L-3.84,0L6.445,0L6.445,2.189L2.613,2.189L2.613,12.943L0,12.943Z" style="fill:white;fill-rule:nonzero;"/>
        </g>
        <g transform="matrix(1,0,0,1,68.2085,123.668)">
            <path d="M0,4.514L2.545,4.268C2.698,5.118 3.009,5.748 3.473,6.148C3.941,6.546 4.574,6.748 5.369,6.748C6.208,6.748 6.844,6.571 7.272,6.212C7.696,5.857 7.91,5.442 7.91,4.965C7.91,4.659 7.821,4.397 7.643,4.183C7.461,3.969 7.147,3.78 6.704,3.622C6.397,3.518 5.695,3.327 4.61,3.058C3.207,2.71 2.226,2.284 1.658,1.779C0.867,1.065 0.468,0.198 0.468,-0.827C0.468,-1.488 0.653,-2.105 1.028,-2.678C1.403,-3.251 1.94,-3.69 2.646,-3.989C3.348,-4.292 4.195,-4.44 5.191,-4.44C6.816,-4.44 8.039,-4.082 8.862,-3.372C9.68,-2.658 10.112,-1.71 10.156,-0.52L7.539,-0.403C7.429,-1.069 7.188,-1.548 6.821,-1.839C6.454,-2.13 5.901,-2.275 5.167,-2.275C4.405,-2.275 3.811,-2.122 3.384,-1.806C3.105,-1.609 2.968,-1.343 2.968,-1.005C2.968,-0.698 3.098,-0.435 3.355,-0.217C3.687,0.057 4.485,0.347 5.755,0.646C7.026,0.949 7.97,1.259 8.575,1.577C9.188,1.896 9.665,2.335 10.007,2.897C10.354,3.449 10.528,4.139 10.528,4.953C10.528,5.696 10.318,6.393 9.906,7.038C9.495,7.688 8.914,8.168 8.16,8.483C7.406,8.797 6.469,8.954 5.34,8.954C3.707,8.954 2.448,8.576 1.573,7.822C0.694,7.063 0.169,5.962 0,4.514" style="fill:white;fill-rule:nonzero;"/>
        </g>
        <g transform="matrix(1,0,0,1,89.2148,124.208)">
            <path d="M0,3.425L2.533,4.232C2.146,5.644 1.5,6.693 0.597,7.378C-0.307,8.064 -1.452,8.406 -2.844,8.406C-4.562,8.406 -5.974,7.818 -7.079,6.644C-8.188,5.47 -8.741,3.864 -8.741,1.827C-8.741,-0.326 -8.185,-2 -7.075,-3.194C-5.958,-4.384 -4.498,-4.981 -2.683,-4.981C-1.102,-4.981 0.186,-4.513 1.174,-3.577C1.763,-3.02 2.202,-2.23 2.501,-1.193L-0.089,-0.572C-0.238,-1.246 -0.561,-1.774 -1.045,-2.166C-1.533,-2.553 -2.122,-2.746 -2.815,-2.746C-3.775,-2.746 -4.554,-2.403 -5.151,-1.714C-5.748,-1.024 -6.047,0.089 -6.047,1.634C-6.047,3.268 -5.752,4.433 -5.167,5.131C-4.578,5.824 -3.812,6.172 -2.868,6.172C-2.174,6.172 -1.577,5.95 -1.077,5.506C-0.577,5.071 -0.218,4.373 0,3.425" style="fill:white;fill-rule:nonzero;"/>
        </g>
        <g transform="matrix(1,0,0,1,81.7568,67.7312)">
            <path d="M0,-23.217L-0.013,-23.233L-1.666,-22.281L-3.041,9.64C1.42,8.333 5.32,6.635 8.229,4.795L13.053,-16.651C13.053,-16.651 13.057,-16.642 13.061,-16.642L14.528,-23.185C14.528,-23.189 14.524,-23.193 14.521,-23.193L16.694,-32.857L0,-23.217Z" style="fill:white;fill-rule:nonzero;"/>
        </g>
        <g transform="matrix(1,0,0,1,98.3467,96.3446)">
            <path d="M0,-49.83L-1.564,-42.872C0.899,-39.577 2.715,-35.769 3.694,-31.639C2.678,-32.631 1.146,-33.43 -0.803,-34.018C1.061,-33.123 2.259,-31.921 2.577,-30.449C3.376,-26.766 -1.532,-22.353 -9.386,-18.985L-9.39,-18.985C-9.414,-18.977 -9.435,-18.97 -9.455,-18.957C-12.492,-17.667 -16.017,-16.509 -19.772,-15.626L-20.18,-6.22C-17.268,-5.892 -14.694,-5.345 -12.677,-4.635L-10.076,-16.202C-2.678,-19.042 2.719,-22.717 4.485,-26.185C4.514,-25.629 4.529,-25.064 4.529,-24.499C4.529,-17.074 1.899,-10.266 -2.48,-4.949C-2.488,-4.936 -2.497,-4.929 -2.505,-4.917C-3.408,-3.796 -3.34,-2.154 -2.299,-1.113C-1.186,0 0.621,0 1.738,-1.113C1.799,-1.174 1.855,-1.242 1.912,-1.307C1.928,-1.323 1.94,-1.343 1.956,-1.363C7.131,-7.659 10.233,-15.715 10.233,-24.499C10.233,-34.341 6.337,-43.268 0,-49.83" style="fill:white;fill-rule:nonzero;"/>
        </g>
        <g transform="matrix(1,0,0,1,48.3228,40.3274)">
            <path d="M0,51.032C-4.36,45.72 -6.978,38.928 -6.978,31.518C-6.978,14.529 6.797,0.754 23.79,0.754C26.771,0.754 29.655,1.182 32.381,1.972L38.791,-1.726C34.212,-3.796 29.138,-4.953 23.79,-4.953C3.646,-4.953 -12.685,11.375 -12.685,31.518C-12.685,40.291 -9.587,48.338 -4.429,54.626C-4.417,54.642 -4.405,54.658 -4.393,54.675C-4.336,54.743 -4.275,54.807 -4.211,54.872C-3.098,55.985 -1.291,55.985 -0.177,54.872C0.859,53.836 0.932,52.202 0.041,51.081C0.024,51.064 0.012,51.049 0,51.032" style="fill:white;fill-rule:nonzero;"/>
        </g>
        <g transform="matrix(1,0,0,1,64.6992,47.3419)">
            <path d="M0,32.453C2.98,32.308 6.228,31.885 9.58,31.159C9.987,31.07 10.386,30.977 10.785,30.885L12.112,0L-3.44,8.958L0,32.453Z" style="fill:white;fill-rule:nonzero;"/>
        </g>
        <g transform="matrix(1,0,0,1,66.2075,81.4005)">
            <path d="M0,8.704C1.843,8.507 3.816,8.402 5.873,8.402C6.861,8.402 7.83,8.427 8.773,8.475L9.136,0C5.514,0.67 2.037,1.02 -1.117,1.069L0,8.704Z" style="fill:white;fill-rule:nonzero;"/>
        </g>
        <g transform="matrix(1,0,0,1,51.1909,92.6014)">
            <path d="M0,-13.326L1,-10.773L1.722,-8.926L5.215,0C6.824,-0.85 9.115,-1.556 11.85,-2.049L10.66,-10.192C5.792,-10.459 1.976,-11.544 0,-13.326" style="fill:white;fill-rule:nonzero;"/>
        </g>
        <g transform="matrix(-0.866375,0.499394,0.499394,0.866375,54.9828,80.7258)">
            <path d="M-14.195,-18.028L0.313,-18.028L2.103,-6.165C1.658,-3.497 -1.383,-0.365 -6.066,2.479L-14.195,-18.028Z" style="fill:white;fill-rule:nonzero;"/>
        </g>
        <g transform="matrix(1,0,0,1,98.4355,101.569)">
            <path d="M0,0.282C-0.008,0.29 -0.017,0.303 -0.028,0.314C0.101,0.197 0.233,0.085 0.362,-0.032C0.233,0.064 0.112,0.169 0,0.282" style="fill:white;fill-rule:nonzero;"/>
        </g>
        <g transform="matrix(1,0,0,1,72.1123,108.719)">
            <path d="M0,-84.401C-26.25,-84.401 -47.531,-63.12 -47.531,-36.87C-47.531,-22.826 -41.436,-10.201 -31.744,-1.501C-31.623,-1.387 -31.498,-1.278 -31.376,-1.17C-29.88,0 -27.714,-0.1 -26.334,-1.476C-24.85,-2.964 -24.85,-5.38 -26.334,-6.865C-26.383,-6.913 -26.432,-6.954 -26.479,-6.998C-26.532,-7.047 -26.584,-7.094 -26.641,-7.139C-34.793,-14.448 -39.923,-25.06 -39.923,-36.87C-39.923,-58.917 -22.051,-76.794 0,-76.794C6.72,-76.794 13.049,-75.132 18.606,-72.2L26.157,-76.56C18.655,-81.513 9.665,-84.401 0,-84.401" style="fill:white;fill-rule:nonzero;"/>
        </g>
        <g transform="matrix(1,0,0,1,101.113,108.719)">
            <path d="M0,-74.527L-1.879,-66.162C5.99,-58.869 10.919,-48.446 10.919,-36.874C10.919,-25.089 5.809,-14.492 -2.315,-7.183C-2.448,-7.066 -2.577,-6.954 -2.706,-6.84C-4.166,-5.348 -4.158,-2.957 -2.678,-1.48C-1.286,-0.085 0.92,0 2.416,-1.214C2.433,-1.23 2.449,-1.246 2.465,-1.258C2.55,-1.331 2.634,-1.399 2.711,-1.48L2.715,-1.484C12.42,-10.188 18.526,-22.813 18.526,-36.874C18.526,-52.206 11.266,-65.835 0,-74.527" style="fill:white;fill-rule:nonzero;"/>
        </g>
        <g transform="matrix(1,0,0,1,36.0288,115.028)">
            <path d="M0,-2.307C0.416,-2.79 0.787,-3.222 1.109,-3.602C1.436,-3.981 1.674,-4.291 1.835,-4.53C1.948,-4.687 2.025,-4.84 2.065,-4.981C2.105,-5.122 2.057,-5.267 1.92,-5.42C1.859,-5.497 1.787,-5.578 1.698,-5.662C1.617,-5.747 1.549,-5.812 1.504,-5.852C1.448,-5.897 1.44,-5.941 1.476,-5.982C1.521,-6.034 1.597,-6.018 1.706,-5.921C1.843,-5.8 1.984,-5.679 2.122,-5.554C2.259,-5.429 2.384,-5.316 2.501,-5.211C2.614,-5.102 2.71,-5.017 2.783,-4.949C2.855,-4.876 2.9,-4.836 2.912,-4.824C2.928,-4.812 2.977,-4.776 3.053,-4.71C3.134,-4.651 3.223,-4.574 3.328,-4.493C3.433,-4.409 3.537,-4.324 3.65,-4.231C3.759,-4.142 3.852,-4.066 3.924,-4.005C4.029,-3.908 4.062,-3.839 4.018,-3.784C3.981,-3.743 3.937,-3.746 3.884,-3.791C3.836,-3.835 3.784,-3.875 3.723,-3.912C3.663,-3.953 3.606,-3.985 3.549,-4.013C3.429,-4.081 3.307,-4.078 3.187,-4.013C3.062,-3.941 2.924,-3.843 2.779,-3.714C2.565,-3.521 2.295,-3.239 1.964,-2.864C1.634,-2.489 1.258,-2.061 0.843,-1.577L-0.686,0.19C-1.021,0.577 -1.295,0.896 -1.508,1.146C-1.722,1.392 -1.896,1.589 -2.025,1.739C-2.154,1.892 -2.259,2.013 -2.335,2.106C-2.412,2.203 -2.481,2.288 -2.541,2.376C-2.803,2.723 -2.852,3.005 -2.687,3.235C-2.646,3.296 -2.598,3.352 -2.541,3.413C-2.489,3.469 -2.444,3.513 -2.412,3.542C-2.355,3.59 -2.348,3.634 -2.38,3.674C-2.428,3.727 -2.505,3.708 -2.614,3.615C-2.69,3.546 -2.787,3.462 -2.9,3.36C-3.009,3.255 -3.114,3.159 -3.21,3.07C-3.308,2.981 -3.392,2.9 -3.469,2.828C-3.542,2.759 -3.586,2.719 -3.598,2.707C-3.614,2.695 -3.659,2.659 -3.739,2.594C-3.82,2.534 -3.913,2.457 -4.014,2.376C-4.118,2.292 -4.223,2.207 -4.332,2.114C-4.445,2.025 -4.538,1.949 -4.61,1.884C-4.715,1.796 -4.748,1.718 -4.699,1.667C-4.667,1.626 -4.623,1.63 -4.57,1.674C-4.534,1.707 -4.498,1.735 -4.461,1.763C-4.421,1.792 -4.364,1.824 -4.292,1.864C-4.134,1.953 -3.989,1.972 -3.864,1.924C-3.735,1.88 -3.59,1.775 -3.425,1.614C-3.348,1.537 -3.271,1.457 -3.187,1.368C-3.106,1.283 -3.001,1.162 -2.868,1.008C-2.739,0.859 -2.569,0.662 -2.355,0.412C-2.138,0.166 -1.864,-0.153 -1.529,-0.54L0,-2.307Z" style="fill:white;fill-rule:nonzero;"/>
        </g>
        <g transform="matrix(1,0,0,1,34.9321,107.618)">
            <path d="M0,1.005C0.169,0.844 0.302,0.71 0.407,0.594C0.508,0.477 0.589,0.371 0.641,0.278C0.693,0.182 0.722,0.102 0.726,0.028C0.726,-0.044 0.706,-0.112 0.665,-0.185C0.617,-0.282 0.556,-0.379 0.484,-0.472C0.415,-0.56 0.367,-0.629 0.331,-0.669C0.286,-0.714 0.29,-0.758 0.338,-0.798C0.383,-0.839 0.456,-0.807 0.548,-0.701C0.77,-0.447 0.948,-0.237 1.081,-0.068C1.214,0.106 1.298,0.21 1.335,0.25C1.371,0.291 1.464,0.388 1.617,0.541C1.771,0.694 1.936,0.872 2.113,1.069C2.194,1.162 2.214,1.231 2.166,1.271C2.121,1.312 2.077,1.308 2.033,1.263C2.004,1.231 1.956,1.178 1.887,1.117C1.819,1.053 1.746,0.997 1.669,0.948C1.609,0.908 1.544,0.888 1.476,0.888C1.403,0.892 1.323,0.92 1.23,0.973C1.137,1.029 1.02,1.106 0.883,1.215C0.75,1.323 0.584,1.461 0.395,1.63L-4.453,5.909C-4.627,6.063 -4.748,6.155 -4.829,6.18C-4.901,6.208 -4.958,6.204 -4.986,6.172C-5.03,6.119 -5.05,6.03 -5.042,5.913C-5.038,5.793 -5.03,5.692 -5.026,5.603C-5.022,5.542 -5.006,5.349 -4.978,5.03C-4.945,4.708 -4.909,4.304 -4.869,3.817C-4.825,3.332 -4.78,2.783 -4.728,2.17C-4.679,1.558 -4.627,0.933 -4.583,0.287C-4.55,-0.129 -4.518,-0.548 -4.478,-0.968C-4.437,-1.383 -4.405,-1.774 -4.373,-2.138C-4.34,-2.505 -4.312,-2.823 -4.284,-3.105C-4.26,-3.38 -4.24,-3.581 -4.231,-3.706L-8.394,0.125C-8.656,0.376 -8.83,0.569 -8.906,0.706C-8.987,0.848 -8.979,0.997 -8.886,1.151C-8.833,1.243 -8.769,1.335 -8.696,1.428C-8.628,1.517 -8.58,1.581 -8.551,1.613C-8.523,1.647 -8.515,1.674 -8.527,1.698C-8.543,1.723 -8.556,1.743 -8.567,1.755C-8.608,1.787 -8.676,1.751 -8.777,1.638C-8.955,1.437 -9.116,1.247 -9.27,1.062C-9.423,0.876 -9.52,0.759 -9.568,0.702C-9.612,0.65 -9.697,0.561 -9.822,0.436C-9.947,0.307 -10.088,0.153 -10.246,-0.023C-10.338,-0.129 -10.366,-0.201 -10.326,-0.237C-10.314,-0.25 -10.29,-0.254 -10.253,-0.254C-10.221,-0.258 -10.189,-0.241 -10.161,-0.209C-10.141,-0.189 -10.117,-0.161 -10.088,-0.129C-10.06,-0.097 -10.016,-0.056 -9.955,-0.016C-9.878,0.045 -9.806,0.081 -9.733,0.093C-9.669,0.102 -9.596,0.093 -9.523,0.066C-9.447,0.032 -9.366,-0.016 -9.273,-0.089C-9.181,-0.157 -9.072,-0.246 -8.947,-0.358L-3.974,-4.715C-3.832,-4.84 -3.723,-4.932 -3.639,-5.001C-3.558,-5.065 -3.493,-5.118 -3.445,-5.154C-3.4,-5.186 -3.368,-5.203 -3.353,-5.203C-3.332,-5.203 -3.316,-5.194 -3.304,-5.182C-3.288,-5.162 -3.271,-5.134 -3.264,-5.094C-3.251,-5.057 -3.243,-4.997 -3.235,-4.916C-3.227,-4.832 -3.223,-4.723 -3.223,-4.59C-3.223,-4.453 -3.223,-4.275 -3.231,-4.057C-3.235,-4.02 -3.243,-3.859 -3.255,-3.569C-3.264,-3.283 -3.288,-2.932 -3.316,-2.516C-3.344,-2.101 -3.376,-1.649 -3.409,-1.157C-3.441,-0.669 -3.473,-0.201 -3.51,0.242C-3.55,0.731 -3.594,1.206 -3.634,1.674C-3.675,2.143 -3.715,2.573 -3.748,2.969C-3.784,3.364 -3.812,3.707 -3.84,3.997C-3.869,4.288 -3.889,4.498 -3.901,4.627L0,1.005Z" style="fill:white;fill-rule:nonzero;"/>
        </g>
        <g transform="matrix(1,0,0,1,30.5957,103.106)">
            <path d="M0,-2.292C0.133,-2.009 0.214,-1.735 0.25,-1.473C0.258,-1.38 0.246,-1.315 0.218,-1.279C0.194,-1.238 0.117,-1.179 -0.008,-1.094C-0.246,-0.94 -0.456,-0.812 -0.642,-0.715C-0.827,-0.613 -0.96,-0.541 -1.045,-0.497C-1.149,-0.428 -1.218,-0.42 -1.25,-0.473C-1.291,-0.533 -1.274,-0.585 -1.202,-0.634C-1.166,-0.658 -1.113,-0.694 -1.053,-0.738C-0.992,-0.783 -0.936,-0.835 -0.875,-0.892C-0.73,-1.041 -0.633,-1.206 -0.581,-1.388C-0.532,-1.569 -0.517,-1.755 -0.537,-1.948C-0.557,-2.143 -0.605,-2.332 -0.682,-2.521C-0.758,-2.707 -0.847,-2.885 -0.956,-3.05C-1.274,-3.538 -1.634,-3.824 -2.033,-3.909C-2.436,-3.998 -2.815,-3.925 -3.17,-3.695C-3.34,-3.582 -3.477,-3.457 -3.578,-3.324C-3.679,-3.187 -3.759,-3.029 -3.816,-2.848C-3.872,-2.671 -3.913,-2.461 -3.937,-2.223C-3.961,-1.985 -3.985,-1.707 -4.005,-1.384L-4.05,-0.723C-4.098,0.06 -4.211,0.657 -4.396,1.068C-4.578,1.476 -4.828,1.786 -5.155,2C-5.433,2.182 -5.711,2.291 -6.002,2.331C-6.292,2.375 -6.575,2.347 -6.853,2.254C-7.131,2.161 -7.397,2.008 -7.651,1.803C-7.906,1.593 -8.14,1.322 -8.354,0.996C-8.479,0.807 -8.587,0.608 -8.684,0.415C-8.781,0.218 -8.854,0.052 -8.902,-0.085C-8.942,-0.198 -8.975,-0.278 -9.003,-0.327C-9.031,-0.38 -9.059,-0.424 -9.083,-0.46C-9.128,-0.529 -9.128,-0.577 -9.08,-0.605C-9.059,-0.617 -8.962,-0.67 -8.793,-0.759C-8.624,-0.848 -8.377,-1.001 -8.051,-1.215C-7.914,-1.308 -7.825,-1.327 -7.789,-1.275C-7.765,-1.238 -7.76,-1.206 -7.781,-1.187C-7.797,-1.162 -7.821,-1.138 -7.853,-1.105C-7.91,-1.058 -7.979,-0.988 -8.055,-0.892C-8.14,-0.799 -8.192,-0.719 -8.224,-0.654C-8.249,-0.622 -8.265,-0.562 -8.285,-0.477C-8.301,-0.392 -8.305,-0.278 -8.289,-0.146C-8.277,-0.013 -8.241,0.141 -8.176,0.318C-8.111,0.496 -8.011,0.693 -7.865,0.915C-7.631,1.271 -7.345,1.521 -7.006,1.661C-6.664,1.803 -6.325,1.767 -5.99,1.549C-5.845,1.451 -5.72,1.339 -5.623,1.218C-5.522,1.097 -5.441,0.943 -5.385,0.766C-5.328,0.584 -5.288,0.37 -5.264,0.125C-5.235,-0.117 -5.224,-0.416 -5.219,-0.767L-5.211,-1.166C-5.207,-1.594 -5.175,-1.973 -5.123,-2.3C-5.066,-2.626 -4.985,-2.913 -4.889,-3.154C-4.788,-3.4 -4.663,-3.61 -4.51,-3.792C-4.356,-3.97 -4.183,-4.127 -3.981,-4.256C-3.699,-4.441 -3.376,-4.559 -3.009,-4.615C-2.642,-4.667 -2.23,-4.599 -1.774,-4.396C-1.504,-4.276 -1.258,-4.095 -1.028,-3.84C-0.799,-3.586 -0.597,-3.328 -0.423,-3.062C-0.274,-2.832 -0.133,-2.574 0,-2.292" style="fill:white;fill-rule:nonzero;"/>
        </g>
        <g transform="matrix(1,0,0,1,23.5371,98.8704)">
            <path d="M0,-3.51C0.492,-3.756 0.923,-3.974 1.307,-4.167C1.682,-4.361 1.968,-4.518 2.162,-4.648C2.307,-4.736 2.412,-4.828 2.48,-4.921C2.545,-5.014 2.553,-5.148 2.497,-5.317C2.477,-5.394 2.448,-5.487 2.404,-5.591C2.364,-5.692 2.331,-5.769 2.307,-5.817C2.283,-5.873 2.295,-5.913 2.348,-5.942C2.404,-5.966 2.46,-5.926 2.513,-5.817C2.585,-5.672 2.658,-5.527 2.727,-5.377C2.795,-5.228 2.855,-5.091 2.916,-4.97C2.973,-4.845 3.017,-4.74 3.058,-4.652C3.094,-4.567 3.118,-4.518 3.126,-4.502C3.134,-4.486 3.158,-4.438 3.207,-4.357C3.251,-4.276 3.303,-4.179 3.364,-4.067C3.424,-3.953 3.489,-3.84 3.549,-3.724C3.61,-3.614 3.658,-3.518 3.699,-3.437C3.755,-3.328 3.755,-3.256 3.699,-3.232C3.65,-3.207 3.614,-3.224 3.586,-3.28C3.562,-3.324 3.533,-3.376 3.497,-3.425C3.461,-3.478 3.424,-3.526 3.384,-3.562C3.303,-3.663 3.207,-3.707 3.094,-3.699C2.98,-3.696 2.844,-3.659 2.682,-3.599C2.464,-3.522 2.166,-3.389 1.783,-3.203C1.403,-3.018 0.964,-2.804 0.472,-2.558L-3.768,-0.448L-2.993,1.052C-2.819,1.379 -2.674,1.609 -2.557,1.729C-2.44,1.859 -2.307,1.931 -2.146,1.948C-2.025,1.971 -1.944,1.975 -1.892,1.971C-1.839,1.964 -1.791,1.96 -1.743,1.956C-1.67,1.939 -1.622,1.96 -1.593,2.016C-1.585,2.032 -1.585,2.052 -1.589,2.073C-1.593,2.093 -1.609,2.113 -1.642,2.129C-1.666,2.141 -1.738,2.161 -1.864,2.193C-1.984,2.226 -2.114,2.259 -2.251,2.291C-2.388,2.323 -2.513,2.355 -2.634,2.387C-2.751,2.416 -2.823,2.435 -2.848,2.448C-2.888,2.448 -2.937,2.452 -2.993,2.452C-3.049,2.456 -3.085,2.452 -3.09,2.435C-3.11,2.395 -3.118,2.335 -3.118,2.259C-3.118,2.177 -3.15,2.06 -3.203,1.911C-3.263,1.754 -3.328,1.589 -3.404,1.419C-3.477,1.25 -3.534,1.133 -3.566,1.068L-5.53,-2.876C-5.615,-3.05 -5.691,-3.196 -5.76,-3.312C-5.829,-3.425 -5.889,-3.522 -5.95,-3.603C-6.006,-3.675 -6.046,-3.732 -6.079,-3.776C-6.111,-3.821 -6.135,-3.853 -6.143,-3.877C-6.159,-3.909 -6.127,-3.942 -6.05,-3.982C-5.97,-4.022 -5.869,-4.071 -5.752,-4.123C-5.631,-4.179 -5.51,-4.236 -5.393,-4.288C-5.276,-4.341 -5.171,-4.389 -5.074,-4.434C-4.974,-4.474 -4.909,-4.506 -4.88,-4.522C-4.792,-4.563 -4.731,-4.554 -4.699,-4.489C-4.691,-4.466 -4.691,-4.442 -4.711,-4.417C-4.728,-4.397 -4.772,-4.364 -4.836,-4.321L-4.937,-4.252C-5.014,-4.207 -5.074,-4.147 -5.119,-4.078C-5.163,-4.006 -5.187,-3.909 -5.191,-3.796C-5.199,-3.679 -5.175,-3.53 -5.123,-3.357C-5.066,-3.179 -4.985,-2.965 -4.869,-2.715L-4.243,-1.396L0,-3.51Z" style="fill:white;fill-rule:nonzero;"/>
        </g>
        <g transform="matrix(1,0,0,1,21.4316,91.8515)">
            <path d="M0,-1.456C0.512,-1.649 0.968,-1.823 1.363,-1.977C1.758,-2.134 2.061,-2.263 2.267,-2.368C2.416,-2.444 2.533,-2.521 2.613,-2.598C2.694,-2.679 2.714,-2.804 2.674,-2.977C2.662,-3.065 2.642,-3.162 2.609,-3.264C2.581,-3.368 2.557,-3.44 2.537,-3.493C2.517,-3.55 2.533,-3.59 2.593,-3.61C2.65,-3.634 2.702,-3.586 2.743,-3.473C2.799,-3.323 2.855,-3.166 2.912,-3.009C2.968,-2.852 3.017,-2.702 3.065,-2.569C3.11,-2.436 3.146,-2.327 3.174,-2.234C3.202,-2.15 3.219,-2.098 3.223,-2.094C3.23,-2.073 3.251,-2.025 3.287,-1.944C3.319,-1.863 3.359,-1.767 3.408,-1.658C3.457,-1.545 3.501,-1.432 3.549,-1.319C3.598,-1.206 3.638,-1.105 3.67,-1.024C3.71,-0.907 3.707,-0.839 3.646,-0.819C3.589,-0.795 3.549,-0.814 3.525,-0.871C3.509,-0.92 3.485,-0.977 3.453,-1.032C3.42,-1.093 3.388,-1.145 3.352,-1.185C3.287,-1.287 3.198,-1.335 3.089,-1.331C2.985,-1.327 2.848,-1.307 2.682,-1.263C2.46,-1.206 2.146,-1.105 1.746,-0.964C1.347,-0.823 0.887,-0.657 0.375,-0.464L-1.489,0.242C-1.892,0.396 -2.227,0.521 -2.481,0.617C-2.739,0.714 -2.945,0.79 -3.102,0.851C-3.268,0.911 -3.4,0.964 -3.493,1.004C-3.586,1.045 -3.671,1.085 -3.751,1.125C-3.925,1.21 -4.05,1.295 -4.119,1.375C-4.187,1.46 -4.211,1.561 -4.191,1.686C-4.183,1.759 -4.171,1.827 -4.155,1.888C-4.135,1.944 -4.119,1.996 -4.103,2.037C-4.082,2.093 -4.098,2.134 -4.155,2.158C-4.215,2.178 -4.264,2.134 -4.308,2.017C-4.344,1.924 -4.381,1.819 -4.421,1.694C-4.461,1.577 -4.505,1.46 -4.546,1.352C-4.59,1.238 -4.626,1.138 -4.651,1.053C-4.679,0.968 -4.695,0.92 -4.699,0.899C-4.703,0.892 -4.724,0.847 -4.764,0.763C-4.8,0.674 -4.836,0.577 -4.877,0.472C-4.921,0.355 -4.97,0.238 -5.018,0.121C-5.066,-0 -5.107,-0.101 -5.139,-0.182C-5.183,-0.299 -5.175,-0.367 -5.119,-0.388C-5.058,-0.411 -5.018,-0.395 -4.998,-0.335C-4.982,-0.295 -4.965,-0.25 -4.954,-0.21C-4.937,-0.178 -4.913,-0.133 -4.869,-0.072C-4.78,0.065 -4.687,0.142 -4.586,0.157C-4.486,0.169 -4.336,0.149 -4.139,0.093C-4.058,0.061 -3.969,0.028 -3.873,-0C-3.775,-0.032 -3.643,-0.081 -3.477,-0.142C-3.32,-0.202 -3.114,-0.282 -2.856,-0.379C-2.602,-0.476 -2.267,-0.602 -1.864,-0.754L0,-1.456Z" style="fill:white;fill-rule:nonzero;"/>
        </g>
        <g transform="matrix(1,0,0,1,19.8306,88.5123)">
            <path d="M0,-3.276C0.532,-3.417 1,-3.547 1.412,-3.659C1.819,-3.772 2.129,-3.873 2.347,-3.958C2.504,-4.018 2.625,-4.087 2.71,-4.163C2.795,-4.24 2.827,-4.369 2.807,-4.547C2.807,-4.627 2.791,-4.724 2.775,-4.833C2.75,-4.942 2.738,-5.022 2.722,-5.075C2.706,-5.135 2.73,-5.172 2.787,-5.188C2.847,-5.204 2.896,-5.151 2.928,-5.031C2.968,-4.877 3.009,-4.719 3.045,-4.562C3.081,-4.401 3.118,-4.255 3.15,-4.123C3.178,-3.986 3.207,-3.877 3.222,-3.784C3.243,-3.695 3.254,-3.639 3.259,-3.623C3.263,-3.606 3.283,-3.554 3.311,-3.465C3.335,-3.377 3.372,-3.268 3.408,-3.147C3.444,-3.022 3.48,-2.901 3.521,-2.78C3.557,-2.655 3.589,-2.549 3.609,-2.465C3.642,-2.344 3.626,-2.28 3.565,-2.263C3.517,-2.248 3.484,-2.271 3.469,-2.332C3.457,-2.38 3.437,-2.437 3.408,-2.494C3.384,-2.549 3.359,-2.606 3.327,-2.651C3.271,-2.763 3.182,-2.828 3.069,-2.844C2.956,-2.86 2.815,-2.852 2.65,-2.828C2.416,-2.796 2.097,-2.723 1.686,-2.619C1.274,-2.513 0.806,-2.388 0.274,-2.252L-4.308,-1.029L-3.844,0.592C-3.744,0.952 -3.647,1.202 -3.558,1.347C-3.469,1.492 -3.348,1.592 -3.195,1.641C-3.086,1.685 -3.001,1.709 -2.953,1.713C-2.896,1.718 -2.848,1.726 -2.8,1.73C-2.727,1.73 -2.683,1.758 -2.667,1.819C-2.667,1.834 -2.667,1.855 -2.674,1.875C-2.683,1.895 -2.703,1.911 -2.739,1.919C-2.763,1.927 -2.84,1.931 -2.965,1.94C-3.094,1.944 -3.227,1.952 -3.368,1.955C-3.51,1.959 -3.639,1.968 -3.759,1.972C-3.885,1.976 -3.957,1.984 -3.981,1.992C-4.021,1.984 -4.07,1.976 -4.126,1.968C-4.183,1.959 -4.215,1.948 -4.219,1.927C-4.231,1.887 -4.228,1.827 -4.211,1.75C-4.195,1.673 -4.199,1.552 -4.224,1.395C-4.251,1.226 -4.284,1.052 -4.324,0.87C-4.361,0.689 -4.389,0.564 -4.409,0.495L-5.542,-3.764C-5.595,-3.954 -5.639,-4.111 -5.684,-4.236C-5.728,-4.361 -5.769,-4.469 -5.809,-4.558C-5.849,-4.639 -5.881,-4.704 -5.905,-4.753C-5.926,-4.8 -5.942,-4.84 -5.946,-4.865C-5.958,-4.901 -5.917,-4.925 -5.833,-4.95C-5.748,-4.974 -5.639,-4.998 -5.51,-5.031C-5.381,-5.058 -5.252,-5.087 -5.131,-5.119C-5.002,-5.147 -4.889,-5.172 -4.784,-5.196C-4.683,-5.22 -4.61,-5.236 -4.578,-5.244C-4.486,-5.268 -4.429,-5.249 -4.409,-5.179C-4.401,-5.151 -4.409,-5.131 -4.433,-5.111C-4.453,-5.09 -4.502,-5.067 -4.578,-5.039L-4.691,-4.994C-4.772,-4.962 -4.845,-4.918 -4.901,-4.857C-4.958,-4.793 -5.002,-4.708 -5.03,-4.594C-5.059,-4.482 -5.066,-4.333 -5.05,-4.151C-5.03,-3.965 -4.994,-3.74 -4.929,-3.473L-4.578,-2.053L0,-3.276Z" style="fill:white;fill-rule:nonzero;"/>
        </g>
        <g transform="matrix(1,0,0,1,16.9424,75.7574)">
            <path d="M0,6.018C-0.432,6.067 -0.783,6.111 -1.053,6.143C-1.327,6.171 -1.549,6.2 -1.714,6.22C-1.892,6.241 -2.029,6.256 -2.13,6.273C-2.231,6.289 -2.324,6.309 -2.408,6.325C-2.586,6.366 -2.719,6.417 -2.82,6.482C-2.92,6.546 -2.969,6.676 -2.977,6.873C-2.977,6.917 -2.977,6.983 -2.973,7.067C-2.969,7.152 -2.961,7.22 -2.953,7.273C-2.949,7.333 -2.977,7.366 -3.038,7.373C-3.098,7.381 -3.134,7.326 -3.15,7.201C-3.167,7.071 -3.179,6.93 -3.19,6.785C-3.203,6.639 -3.219,6.506 -3.231,6.381C-3.247,6.248 -3.259,6.139 -3.263,6.046C-3.271,5.954 -3.275,5.893 -3.279,5.865C-3.284,5.841 -3.292,5.781 -3.308,5.688C-3.32,5.595 -3.336,5.494 -3.352,5.381C-3.364,5.256 -3.38,5.135 -3.4,5.014C-3.417,4.889 -3.433,4.784 -3.441,4.696C-3.457,4.566 -3.433,4.494 -3.373,4.486C-3.312,4.478 -3.279,4.51 -3.268,4.582C-3.263,4.626 -3.259,4.671 -3.255,4.711C-3.247,4.747 -3.235,4.8 -3.207,4.869C-3.167,5.014 -3.09,5.107 -2.985,5.143C-2.876,5.179 -2.731,5.196 -2.541,5.192C-2.453,5.192 -2.36,5.187 -2.259,5.179C-2.154,5.171 -2.017,5.155 -1.839,5.139C-1.674,5.115 -1.452,5.09 -1.182,5.062C-0.908,5.03 -0.557,4.986 -0.125,4.937L1.444,4.751C1.847,4.707 2.194,4.643 2.484,4.566C2.775,4.486 3.021,4.397 3.227,4.3C3.437,4.2 3.606,4.086 3.739,3.965C3.868,3.84 3.989,3.711 4.085,3.579C4.308,3.268 4.44,2.973 4.485,2.695C4.529,2.416 4.529,2.114 4.489,1.779C4.449,1.416 4.336,1.089 4.154,0.787C3.973,0.489 3.751,0.25 3.489,0.077C3.134,-0.157 2.723,-0.29 2.263,-0.323C1.799,-0.35 1.274,-0.331 0.698,-0.266L-0.714,-0.1C-1.146,-0.052 -1.497,-0.007 -1.771,0.021C-2.041,0.053 -2.263,0.081 -2.433,0.105C-2.606,0.129 -2.743,0.15 -2.84,0.169C-2.945,0.186 -3.038,0.198 -3.122,0.206C-3.3,0.239 -3.437,0.283 -3.534,0.351C-3.634,0.415 -3.687,0.544 -3.691,0.743C-3.695,0.787 -3.695,0.851 -3.687,0.936C-3.683,1.021 -3.679,1.089 -3.671,1.142C-3.663,1.203 -3.691,1.235 -3.751,1.243C-3.812,1.25 -3.852,1.19 -3.864,1.069C-3.88,0.936 -3.893,0.799 -3.909,0.658C-3.917,0.517 -3.933,0.392 -3.945,0.275C-3.957,0.154 -3.969,0.049 -3.973,-0.036C-3.981,-0.117 -3.985,-0.169 -3.985,-0.185C-3.989,-0.229 -4.009,-0.359 -4.046,-0.573C-4.078,-0.791 -4.106,-0.984 -4.126,-1.157C-4.143,-1.283 -4.119,-1.347 -4.054,-1.355C-3.994,-1.363 -3.957,-1.335 -3.953,-1.274C-3.949,-1.23 -3.941,-1.185 -3.937,-1.141C-3.933,-1.105 -3.917,-1.056 -3.893,-0.988C-3.836,-0.831 -3.759,-0.738 -3.659,-0.698C-3.554,-0.661 -3.413,-0.645 -3.223,-0.649C-3.134,-0.653 -3.038,-0.657 -2.933,-0.669C-2.835,-0.681 -2.699,-0.698 -2.525,-0.717C-2.356,-0.738 -2.138,-0.762 -1.864,-0.794C-1.593,-0.827 -1.238,-0.867 -0.811,-0.919L0.391,-1.056C0.698,-1.092 1.008,-1.117 1.323,-1.129C1.642,-1.137 1.948,-1.121 2.254,-1.073C2.557,-1.028 2.848,-0.956 3.13,-0.842C3.408,-0.734 3.658,-0.577 3.88,-0.371C4.09,-0.181 4.259,0.016 4.388,0.218C4.521,0.424 4.626,0.625 4.707,0.823C4.788,1.025 4.852,1.222 4.889,1.416C4.929,1.614 4.961,1.795 4.981,1.96C4.993,2.057 5.001,2.199 5.018,2.384C5.029,2.57 5.021,2.78 4.997,3.017C4.969,3.251 4.921,3.497 4.844,3.747C4.763,4.001 4.642,4.244 4.469,4.469C4.356,4.622 4.219,4.772 4.062,4.917C3.904,5.058 3.719,5.187 3.501,5.308C3.283,5.429 3.021,5.531 2.718,5.619C2.42,5.707 2.061,5.781 1.649,5.825L0,6.018Z" style="fill:white;fill-rule:nonzero;"/>
        </g>
        <g transform="matrix(1,0,0,1,18.1929,70.8692)">
            <path d="M0,-0.96C0.548,-0.944 1.036,-0.936 1.46,-0.928C1.883,-0.924 2.214,-0.928 2.444,-0.952C2.613,-0.964 2.75,-0.996 2.852,-1.049C2.952,-1.097 3.021,-1.21 3.053,-1.388C3.073,-1.464 3.089,-1.561 3.097,-1.67C3.11,-1.783 3.118,-1.864 3.118,-1.916C3.118,-1.981 3.15,-2.009 3.214,-2.005C3.275,-2.005 3.307,-1.94 3.303,-1.819C3.299,-1.662 3.291,-1.497 3.283,-1.335C3.275,-1.17 3.267,-1.021 3.259,-0.883C3.25,-0.746 3.243,-0.633 3.239,-0.537C3.23,-0.448 3.227,-0.391 3.227,-0.375L3.227,-0.206C3.23,-0.113 3.23,-0.004 3.234,0.125C3.234,0.254 3.234,0.379 3.239,0.508C3.239,0.637 3.239,0.746 3.234,0.835C3.23,0.96 3.198,1.02 3.138,1.02C3.085,1.02 3.057,0.988 3.061,0.923C3.061,0.871 3.057,0.814 3.053,0.75C3.045,0.69 3.033,0.629 3.017,0.577C2.993,0.452 2.928,0.367 2.823,0.318C2.718,0.274 2.581,0.238 2.416,0.218C2.186,0.186 1.859,0.161 1.432,0.145C1.008,0.129 0.52,0.117 -0.028,0.101L-4.764,-0.021L-4.78,1.67C-4.78,2.041 -4.76,2.308 -4.715,2.473C-4.671,2.638 -4.583,2.767 -4.453,2.859C-4.356,2.933 -4.284,2.977 -4.235,2.997C-4.191,3.017 -4.143,3.033 -4.099,3.054C-4.03,3.073 -3.994,3.114 -3.998,3.175C-3.998,3.194 -4.006,3.211 -4.018,3.23C-4.03,3.247 -4.054,3.255 -4.09,3.251C-4.119,3.251 -4.191,3.234 -4.316,3.207C-4.437,3.179 -4.57,3.146 -4.703,3.109C-4.84,3.077 -4.97,3.045 -5.086,3.013C-5.208,2.984 -5.28,2.969 -5.304,2.969C-5.341,2.952 -5.385,2.933 -5.437,2.908C-5.49,2.884 -5.514,2.864 -5.514,2.848C-5.514,2.799 -5.494,2.743 -5.458,2.674C-5.421,2.605 -5.393,2.488 -5.369,2.331C-5.345,2.162 -5.329,1.984 -5.316,1.799C-5.3,1.617 -5.296,1.488 -5.292,1.416L-5.179,-2.989C-5.175,-3.187 -5.175,-3.348 -5.184,-3.481C-5.187,-3.614 -5.199,-3.731 -5.212,-3.828C-5.228,-3.917 -5.24,-3.989 -5.248,-4.042C-5.256,-4.094 -5.26,-4.134 -5.26,-4.159C-5.26,-4.195 -5.212,-4.215 -5.123,-4.211C-5.034,-4.207 -4.925,-4.203 -4.792,-4.195C-4.659,-4.187 -4.53,-4.179 -4.401,-4.175C-4.272,-4.167 -4.155,-4.159 -4.05,-4.15C-3.945,-4.143 -3.873,-4.139 -3.836,-4.139C-3.739,-4.134 -3.691,-4.098 -3.695,-4.03C-3.695,-4.002 -3.711,-3.981 -3.735,-3.969C-3.764,-3.957 -3.816,-3.945 -3.893,-3.941L-4.014,-3.929C-4.103,-3.925 -4.183,-3.9 -4.256,-3.856C-4.329,-3.816 -4.393,-3.743 -4.453,-3.642C-4.514,-3.542 -4.562,-3.4 -4.599,-3.223C-4.635,-3.042 -4.659,-2.812 -4.675,-2.541L-4.74,-1.081L0,-0.96Z" style="fill:white;fill-rule:nonzero;"/>
        </g>
        <g transform="matrix(1,0,0,1,18.8984,58.7402)">
            <path d="M0,6.752C0.549,6.664 1.037,6.486 1.464,6.224C1.888,5.961 2.234,5.631 2.513,5.223C2.783,4.82 2.969,4.356 3.062,3.832C3.11,3.57 3.118,3.259 3.09,2.888C3.062,2.517 2.944,2.146 2.73,1.771C2.517,1.396 2.186,1.049 1.734,0.738C1.283,0.424 0.657,0.194 -0.145,0.052C-0.807,-0.068 -1.412,-0.081 -1.952,0.016C-2.497,0.113 -2.969,0.291 -3.364,0.548C-3.759,0.807 -4.082,1.126 -4.332,1.509C-4.578,1.892 -4.744,2.307 -4.824,2.763C-4.909,3.243 -4.913,3.699 -4.833,4.13C-4.751,4.562 -4.586,4.949 -4.34,5.296C-4.09,5.643 -3.755,5.938 -3.332,6.184C-2.908,6.43 -2.396,6.607 -1.795,6.716C-1.149,6.829 -0.553,6.841 0,6.752M-3.09,7.434C-3.566,7.164 -3.989,6.809 -4.356,6.361C-4.719,5.913 -4.994,5.377 -5.171,4.752C-5.353,4.123 -5.373,3.417 -5.231,2.622C-5.114,1.977 -4.913,1.392 -4.623,0.867C-4.328,0.347 -3.965,-0.084 -3.533,-0.428C-3.098,-0.766 -2.606,-1.008 -2.049,-1.145C-1.493,-1.287 -0.892,-1.299 -0.246,-1.182C0.371,-1.073 0.936,-0.855 1.448,-0.537C1.964,-0.214 2.388,0.186 2.727,0.658C3.065,1.133 3.303,1.674 3.44,2.291C3.578,2.9 3.586,3.554 3.461,4.239C3.324,5.026 3.069,5.679 2.703,6.196C2.335,6.716 1.908,7.119 1.42,7.41C0.932,7.7 0.412,7.886 -0.137,7.966C-0.686,8.051 -1.21,8.047 -1.706,7.958C-2.15,7.877 -2.61,7.704 -3.09,7.434" style="fill:white;fill-rule:nonzero;"/>
        </g>
        <g transform="matrix(1,0,0,1,22.0566,47.8986)">
            <path d="M0,2.307C0.589,2.553 1.113,2.771 1.577,2.96C2.037,3.154 2.408,3.287 2.683,3.364C2.868,3.42 3.033,3.449 3.183,3.444C3.328,3.436 3.453,3.344 3.554,3.17C3.61,3.085 3.663,2.989 3.719,2.884C3.771,2.779 3.812,2.694 3.836,2.638C3.864,2.573 3.9,2.549 3.949,2.569C4.018,2.598 4.021,2.678 3.965,2.807C3.893,2.976 3.82,3.15 3.743,3.319C3.667,3.489 3.598,3.646 3.534,3.783C3.469,3.928 3.417,4.045 3.372,4.134C3.328,4.227 3.304,4.283 3.295,4.3C3.287,4.316 3.268,4.372 3.235,4.465C3.199,4.561 3.158,4.671 3.11,4.795C3.062,4.921 3.013,5.046 2.96,5.179C2.912,5.312 2.868,5.425 2.828,5.514C2.775,5.642 2.715,5.695 2.65,5.667C2.602,5.646 2.589,5.602 2.618,5.538C2.642,5.481 2.662,5.421 2.683,5.348C2.703,5.284 2.715,5.215 2.723,5.15C2.751,5.017 2.711,4.905 2.61,4.807C2.505,4.711 2.368,4.614 2.198,4.513C1.952,4.372 1.598,4.199 1.138,4.001C0.678,3.803 0.157,3.581 -0.432,3.335L-5.611,1.158L-6.345,2.98C-6.425,3.17 -6.486,3.335 -6.526,3.476C-6.566,3.618 -6.591,3.743 -6.607,3.852C-6.615,3.96 -6.615,4.061 -6.591,4.146C-6.57,4.231 -6.534,4.316 -6.478,4.392C-6.401,4.505 -6.34,4.586 -6.3,4.634C-6.26,4.687 -6.224,4.727 -6.187,4.763C-6.119,4.828 -6.095,4.889 -6.119,4.937C-6.135,4.977 -6.179,4.981 -6.252,4.949C-6.284,4.937 -6.357,4.892 -6.474,4.811C-6.591,4.735 -6.716,4.65 -6.849,4.554C-6.982,4.461 -7.107,4.372 -7.216,4.295C-7.325,4.215 -7.389,4.166 -7.41,4.146C-7.446,4.114 -7.486,4.074 -7.535,4.029C-7.583,3.985 -7.603,3.953 -7.595,3.928C-7.579,3.884 -7.53,3.836 -7.458,3.775C-7.385,3.715 -7.305,3.606 -7.22,3.449C-7.127,3.279 -7.034,3.093 -6.941,2.904C-6.845,2.714 -6.784,2.581 -6.752,2.509L-4.824,-2.082C-4.739,-2.279 -4.675,-2.449 -4.626,-2.598C-4.578,-2.747 -4.545,-2.872 -4.521,-2.977C-4.498,-3.074 -4.481,-3.154 -4.469,-3.215C-4.457,-3.276 -4.445,-3.32 -4.437,-3.344C-4.425,-3.377 -4.4,-3.388 -4.372,-3.38C-4.34,-3.372 -4.304,-3.36 -4.263,-3.344C-4.175,-3.308 -4.062,-3.255 -3.924,-3.195C-3.788,-3.13 -3.65,-3.07 -3.513,-3.005C-3.376,-2.945 -3.255,-2.888 -3.146,-2.84C-3.037,-2.787 -2.965,-2.755 -2.932,-2.743C-2.828,-2.699 -2.783,-2.646 -2.811,-2.59C-2.823,-2.558 -2.848,-2.542 -2.876,-2.537C-2.904,-2.537 -2.965,-2.549 -3.058,-2.578L-3.199,-2.622C-3.292,-2.654 -3.388,-2.662 -3.493,-2.646C-3.594,-2.63 -3.694,-2.582 -3.799,-2.497C-3.904,-2.408 -4.013,-2.279 -4.13,-2.102C-4.247,-1.924 -4.372,-1.691 -4.505,-1.4L-5.179,0.129L0,2.307Z" style="fill:white;fill-rule:nonzero;"/>
        </g>
        <g transform="matrix(1,0,0,1,22.9844,42.7076)">
            <path d="M0,2.331C-0.375,2.113 -0.678,1.932 -0.916,1.794C-1.153,1.657 -1.343,1.544 -1.488,1.46C-1.642,1.371 -1.763,1.302 -1.852,1.254C-1.944,1.206 -2.029,1.165 -2.109,1.125C-2.287,1.044 -2.432,1 -2.541,0.996C-2.654,0.992 -2.767,1.072 -2.888,1.226C-2.92,1.258 -2.96,1.31 -3.005,1.383C-3.049,1.452 -3.09,1.508 -3.114,1.557C-3.146,1.609 -3.187,1.621 -3.243,1.589C-3.295,1.557 -3.292,1.488 -3.227,1.383C-3.158,1.266 -3.09,1.145 -3.009,1.016C-2.928,0.891 -2.855,0.766 -2.787,0.653C-2.719,0.54 -2.662,0.443 -2.61,0.367C-2.561,0.286 -2.529,0.242 -2.521,0.226C-2.517,0.217 -2.481,0.157 -2.416,0.04C-2.348,-0.073 -2.267,-0.21 -2.174,-0.372C-2.073,-0.541 -1.968,-0.718 -1.859,-0.908C-1.742,-1.106 -1.634,-1.295 -1.529,-1.473C-1.428,-1.646 -1.335,-1.799 -1.258,-1.929C-1.186,-2.058 -1.133,-2.142 -1.113,-2.183C-1.061,-2.283 -1.021,-2.384 -0.98,-2.473C-0.944,-2.566 -0.916,-2.63 -0.904,-2.67C-0.896,-2.699 -0.891,-2.727 -0.891,-2.759C-0.887,-2.788 -0.879,-2.816 -0.867,-2.836C-0.851,-2.868 -0.811,-2.864 -0.75,-2.832C-0.71,-2.808 -0.666,-2.768 -0.609,-2.711C-0.557,-2.654 -0.468,-2.578 -0.334,-2.481C-0.314,-2.469 -0.274,-2.441 -0.222,-2.404C-0.166,-2.368 -0.105,-2.324 -0.04,-2.279C0.024,-2.231 0.085,-2.187 0.145,-2.147C0.202,-2.106 0.246,-2.074 0.27,-2.049C0.291,-2.029 0.307,-2.001 0.319,-1.973C0.334,-1.945 0.334,-1.92 0.319,-1.896C0.291,-1.844 0.23,-1.84 0.145,-1.888C0.109,-1.912 0.057,-1.937 -0.016,-1.969C-0.085,-2.001 -0.157,-2.021 -0.23,-2.033C-0.278,-2.042 -0.323,-2.042 -0.371,-2.029C-0.416,-2.021 -0.468,-1.997 -0.521,-1.957C-0.577,-1.917 -0.637,-1.86 -0.702,-1.787C-0.774,-1.715 -0.855,-1.614 -0.948,-1.485C-0.984,-1.444 -1.045,-1.352 -1.133,-1.211C-1.222,-1.065 -1.319,-0.916 -1.42,-0.755C-1.517,-0.589 -1.609,-0.44 -1.69,-0.303C-1.771,-0.166 -1.819,-0.081 -1.835,-0.049C-1.859,-0.013 -1.835,0.024 -1.767,0.064L0.879,1.617C0.948,1.657 0.996,1.657 1.017,1.621C1.037,1.589 1.089,1.496 1.178,1.343C1.271,1.182 1.375,1.008 1.484,0.814C1.597,0.625 1.702,0.447 1.795,0.274C1.892,0.104 1.952,-0.013 1.98,-0.077C2.037,-0.21 2.082,-0.315 2.114,-0.4C2.146,-0.484 2.154,-0.569 2.129,-0.654C2.097,-0.787 2.082,-0.859 2.089,-0.876C2.114,-0.912 2.154,-0.916 2.207,-0.884C2.234,-0.868 2.287,-0.823 2.359,-0.755C2.432,-0.686 2.545,-0.597 2.698,-0.488C2.787,-0.416 2.9,-0.335 3.037,-0.247C3.174,-0.154 3.263,-0.097 3.299,-0.077C3.34,-0.053 3.376,-0.024 3.412,0.012C3.444,0.048 3.453,0.084 3.429,0.121C3.404,0.169 3.36,0.173 3.299,0.137C3.255,0.112 3.203,0.084 3.146,0.056C3.09,0.028 3.025,0.012 2.953,-0.004C2.872,-0.029 2.787,-0.024 2.698,0.012C2.606,0.044 2.489,0.153 2.352,0.338C2.303,0.403 2.23,0.508 2.134,0.657C2.037,0.806 1.94,0.959 1.843,1.117C1.742,1.274 1.654,1.423 1.573,1.56C1.493,1.698 1.44,1.79 1.412,1.835C1.388,1.883 1.396,1.915 1.444,1.944L2.255,2.419C2.339,2.468 2.464,2.545 2.634,2.642C2.795,2.734 2.96,2.835 3.138,2.936C3.315,3.041 3.477,3.138 3.63,3.227C3.775,3.311 3.872,3.368 3.917,3.392C4.082,3.48 4.227,3.537 4.348,3.569C4.469,3.598 4.582,3.585 4.691,3.529C4.8,3.477 4.909,3.375 5.018,3.234C5.126,3.093 5.251,2.9 5.401,2.645C5.478,2.517 5.57,2.347 5.683,2.133C5.796,1.923 5.865,1.738 5.889,1.577C5.905,1.411 5.885,1.262 5.833,1.133C5.776,1.008 5.659,0.871 5.481,0.722C5.393,0.641 5.365,0.576 5.393,0.532C5.409,0.504 5.433,0.492 5.469,0.504C5.506,0.512 5.542,0.528 5.579,0.552C5.594,0.56 5.639,0.592 5.715,0.645C5.792,0.701 5.877,0.766 5.97,0.843C6.066,0.919 6.155,0.992 6.244,1.06C6.329,1.133 6.393,1.189 6.437,1.238C6.49,1.29 6.526,1.339 6.546,1.383C6.566,1.432 6.571,1.48 6.562,1.524C6.555,1.573 6.534,1.629 6.502,1.698C6.466,1.766 6.421,1.847 6.365,1.948C6.139,2.331 5.937,2.662 5.76,2.948C5.586,3.234 5.433,3.48 5.304,3.678C5.163,3.884 5.05,4.057 4.969,4.194C4.897,4.324 4.832,4.428 4.792,4.505C4.78,4.517 4.751,4.57 4.703,4.654C4.655,4.735 4.603,4.836 4.546,4.945C4.498,5.049 4.445,5.154 4.388,5.259C4.328,5.364 4.275,5.461 4.227,5.546C4.163,5.65 4.106,5.687 4.054,5.659C4.001,5.626 3.989,5.582 4.021,5.53C4.046,5.481 4.07,5.429 4.094,5.364C4.118,5.3 4.134,5.243 4.158,5.195C4.199,5.086 4.183,4.989 4.106,4.913C4.029,4.828 3.924,4.735 3.795,4.63C3.614,4.481 3.34,4.299 2.977,4.081C2.614,3.864 2.194,3.614 1.718,3.335L0,2.331ZM-2.912,-3.356C-2.803,-3.356 -2.674,-3.353 -2.525,-3.344C-2.453,-3.344 -2.412,-3.328 -2.404,-3.3C-2.396,-3.268 -2.4,-3.243 -2.412,-3.219C-2.42,-3.203 -2.448,-3.171 -2.489,-3.118C-2.529,-3.062 -2.569,-2.981 -2.614,-2.877C-2.682,-2.727 -2.743,-2.562 -2.799,-2.376C-2.855,-2.19 -2.912,-2.001 -2.957,-1.815C-3.005,-1.626 -3.045,-1.448 -3.078,-1.279C-3.114,-1.106 -3.134,-0.964 -3.15,-0.852C-3.167,-0.739 -3.182,-0.67 -3.195,-0.646C-3.219,-0.609 -3.251,-0.602 -3.295,-0.629C-3.328,-0.646 -3.344,-0.69 -3.344,-0.763C-3.352,-0.904 -3.364,-1.089 -3.372,-1.319C-3.38,-1.549 -3.388,-1.775 -3.396,-2.001C-3.4,-2.227 -3.404,-2.425 -3.404,-2.59C-3.4,-2.759 -3.404,-2.86 -3.404,-2.893C-3.408,-3.025 -3.408,-3.123 -3.4,-3.175C-3.396,-3.227 -3.384,-3.268 -3.368,-3.3C-3.348,-3.332 -3.292,-3.348 -3.195,-3.353C-3.11,-3.356 -3.017,-3.356 -2.912,-3.356" style="fill:white;fill-rule:nonzero;"/>
        </g>
        <g transform="matrix(1,0,0,1,31.3945,33.3375)">
            <path d="M0,8.079C-0.537,8.438 -1.101,8.672 -1.698,8.793C-2.069,8.861 -2.42,8.886 -2.755,8.861C-3.09,8.837 -3.405,8.781 -3.695,8.684C-3.989,8.591 -4.26,8.47 -4.518,8.325C-4.772,8.176 -5.002,8.018 -5.211,7.857C-5.361,7.744 -5.522,7.591 -5.696,7.405C-5.869,7.22 -6.034,7.006 -6.192,6.76C-6.349,6.514 -6.482,6.236 -6.599,5.929C-6.712,5.622 -6.789,5.287 -6.837,4.929C-6.861,4.687 -6.861,4.429 -6.837,4.162C-6.813,3.892 -6.756,3.614 -6.667,3.315C-6.575,3.021 -6.446,2.714 -6.276,2.392C-6.103,2.073 -5.881,1.734 -5.603,1.379C-5.461,1.198 -5.288,0.992 -5.079,0.758C-4.873,0.528 -4.663,0.314 -4.453,0.117C-4.284,-0.028 -4.126,-0.17 -3.985,-0.299C-3.844,-0.432 -3.711,-0.569 -3.582,-0.718C-3.521,-0.795 -3.461,-0.807 -3.4,-0.758C-3.364,-0.734 -3.316,-0.69 -3.251,-0.626C-3.187,-0.565 -3.078,-0.464 -2.929,-0.327C-2.852,-0.267 -2.767,-0.202 -2.683,-0.126C-2.594,-0.053 -2.505,0.02 -2.412,0.093C-2.332,0.157 -2.251,0.222 -2.182,0.282C-2.114,0.339 -2.062,0.383 -2.033,0.403C-1.912,0.508 -1.88,0.593 -1.928,0.657C-1.965,0.705 -2.045,0.682 -2.174,0.58C-2.348,0.447 -2.541,0.35 -2.755,0.294C-2.973,0.238 -3.175,0.234 -3.364,0.278C-3.63,0.33 -3.933,0.475 -4.276,0.722C-4.619,0.964 -4.949,1.294 -5.268,1.706C-5.498,2 -5.679,2.27 -5.821,2.52C-5.958,2.775 -6.062,3.005 -6.131,3.21C-6.2,3.424 -6.24,3.614 -6.256,3.787C-6.272,3.96 -6.276,4.118 -6.264,4.259C-6.216,4.848 -6.038,5.344 -5.728,5.755C-5.421,6.163 -5.038,6.546 -4.586,6.897C-4.159,7.232 -3.687,7.47 -3.17,7.611C-2.654,7.756 -2.134,7.796 -1.61,7.736C-1.085,7.671 -0.577,7.506 -0.085,7.24C0.403,6.97 0.843,6.586 1.23,6.09C1.5,5.744 1.706,5.429 1.843,5.15C1.984,4.868 2.033,4.57 1.992,4.247C1.972,4.074 1.908,3.892 1.794,3.706C1.69,3.521 1.597,3.388 1.524,3.311C1.488,3.259 1.464,3.223 1.452,3.203C1.44,3.182 1.444,3.154 1.472,3.118C1.488,3.098 1.517,3.085 1.553,3.089C1.593,3.089 1.629,3.105 1.666,3.134C1.678,3.142 1.726,3.19 1.811,3.279C1.892,3.368 1.984,3.469 2.089,3.581C2.19,3.694 2.291,3.811 2.392,3.936C2.493,4.058 2.573,4.162 2.634,4.243C2.698,4.336 2.73,4.404 2.743,4.449C2.75,4.497 2.743,4.57 2.718,4.675C2.65,4.925 2.504,5.215 2.291,5.546C2.077,5.881 1.851,6.195 1.617,6.497C1.077,7.195 0.536,7.72 0,8.079" style="fill:white;fill-rule:nonzero;"/>
        </g>
        <g transform="matrix(1,0,0,1,34.625,27.2342)">
            <path d="M0,8.172C0.162,8.338 0.302,8.471 0.419,8.571C0.537,8.676 0.646,8.749 0.738,8.801C0.835,8.85 0.916,8.878 0.988,8.878C1.061,8.878 1.133,8.858 1.206,8.818C1.299,8.765 1.392,8.705 1.484,8.632C1.573,8.559 1.642,8.507 1.678,8.471C1.722,8.426 1.767,8.43 1.811,8.475C1.852,8.523 1.819,8.591 1.714,8.689C1.468,8.914 1.258,9.096 1.093,9.233C0.924,9.37 0.819,9.459 0.779,9.495C0.742,9.527 0.646,9.624 0.492,9.781C0.343,9.939 0.169,10.104 -0.024,10.286C-0.117,10.37 -0.186,10.386 -0.226,10.342C-0.266,10.298 -0.266,10.254 -0.222,10.213C-0.186,10.181 -0.137,10.132 -0.077,10.064C-0.016,9.991 0.04,9.919 0.089,9.838C0.129,9.777 0.145,9.713 0.145,9.645C0.141,9.576 0.109,9.495 0.057,9.402C0,9.31 -0.085,9.193 -0.193,9.06C-0.302,8.93 -0.448,8.769 -0.617,8.58L-4.99,3.812C-5.146,3.643 -5.235,3.522 -5.264,3.441C-5.292,3.368 -5.292,3.316 -5.256,3.284C-5.207,3.235 -5.123,3.215 -5.001,3.219C-4.885,3.227 -4.78,3.231 -4.691,3.235C-4.626,3.235 -4.437,3.251 -4.118,3.276C-3.795,3.296 -3.388,3.324 -2.904,3.356C-2.416,3.392 -1.867,3.429 -1.254,3.465C-0.642,3.505 -0.012,3.542 0.629,3.578C1.049,3.602 1.468,3.627 1.888,3.659C2.307,3.687 2.698,3.719 3.062,3.743C3.429,3.768 3.751,3.792 4.025,3.812C4.304,3.832 4.505,3.848 4.63,3.852L0.722,-0.238C0.468,-0.496 0.27,-0.665 0.133,-0.738C-0.008,-0.814 -0.157,-0.807 -0.311,-0.714C-0.403,-0.653 -0.492,-0.589 -0.581,-0.516C-0.674,-0.443 -0.734,-0.395 -0.766,-0.363C-0.803,-0.334 -0.831,-0.327 -0.855,-0.339C-0.879,-0.355 -0.896,-0.367 -0.908,-0.379C-0.944,-0.419 -0.908,-0.492 -0.794,-0.593C-0.601,-0.77 -0.412,-0.939 -0.23,-1.093C-0.048,-1.25 0.068,-1.351 0.121,-1.399C0.173,-1.448 0.262,-1.533 0.387,-1.658C0.512,-1.783 0.662,-1.928 0.839,-2.089C0.94,-2.186 1.013,-2.214 1.049,-2.174C1.061,-2.161 1.069,-2.138 1.069,-2.105C1.069,-2.069 1.053,-2.036 1.021,-2.009C1.004,-1.988 0.976,-1.964 0.944,-1.936C0.912,-1.904 0.875,-1.859 0.835,-1.799C0.774,-1.722 0.742,-1.649 0.734,-1.577C0.722,-1.508 0.734,-1.44 0.766,-1.367C0.799,-1.29 0.847,-1.21 0.919,-1.117C0.988,-1.028 1.081,-0.919 1.198,-0.798L5.647,4.094C5.772,4.232 5.869,4.34 5.937,4.421C6.006,4.502 6.058,4.566 6.095,4.61C6.127,4.655 6.147,4.687 6.143,4.708C6.143,4.728 6.139,4.744 6.123,4.752C6.103,4.772 6.075,4.784 6.038,4.796C5.998,4.808 5.941,4.817 5.856,4.828C5.776,4.837 5.667,4.84 5.534,4.844C5.401,4.849 5.224,4.849 5.001,4.844C4.965,4.844 4.804,4.84 4.514,4.837C4.227,4.828 3.876,4.812 3.457,4.792C3.042,4.772 2.589,4.752 2.098,4.728C1.609,4.703 1.142,4.675 0.698,4.651C0.209,4.619 -0.27,4.582 -0.738,4.55C-1.206,4.518 -1.638,4.489 -2.033,4.462C-2.432,4.437 -2.775,4.413 -3.065,4.389C-3.356,4.369 -3.565,4.352 -3.695,4.34L0,8.172Z" style="fill:white;fill-rule:nonzero;"/>
        </g>
        <g transform="matrix(1,0,0,1,41.4702,26.4644)">
            <path d="M0,0.996C0.314,1.444 0.597,1.843 0.847,2.186C1.097,2.529 1.298,2.791 1.452,2.96C1.564,3.089 1.666,3.182 1.762,3.239C1.855,3.295 1.984,3.287 2.142,3.206C2.226,3.17 2.315,3.121 2.404,3.069C2.497,3.017 2.565,2.973 2.609,2.944C2.658,2.908 2.702,2.912 2.734,2.964C2.771,3.017 2.738,3.077 2.638,3.146C2.508,3.239 2.372,3.331 2.234,3.424C2.093,3.517 1.964,3.605 1.847,3.682C1.726,3.759 1.629,3.824 1.549,3.876C1.472,3.924 1.428,3.953 1.424,3.956C1.408,3.969 1.363,4.001 1.294,4.054C1.226,4.11 1.141,4.17 1.048,4.243C0.952,4.316 0.855,4.392 0.758,4.469C0.661,4.541 0.573,4.606 0.504,4.654C0.399,4.727 0.331,4.739 0.294,4.686C0.262,4.634 0.27,4.594 0.318,4.558C0.363,4.525 0.407,4.489 0.456,4.445C0.504,4.396 0.548,4.352 0.581,4.308C0.661,4.219 0.686,4.126 0.653,4.021C0.625,3.916 0.568,3.791 0.488,3.642C0.375,3.44 0.202,3.162 -0.037,2.807C-0.274,2.456 -0.553,2.057 -0.872,1.609L-2.017,-0.016C-2.267,-0.376 -2.473,-0.662 -2.63,-0.888C-2.788,-1.109 -2.917,-1.291 -3.013,-1.428C-3.114,-1.573 -3.195,-1.686 -3.259,-1.767C-3.32,-1.848 -3.38,-1.921 -3.437,-1.989C-3.566,-2.138 -3.679,-2.235 -3.771,-2.279C-3.873,-2.324 -3.977,-2.324 -4.094,-2.275C-4.163,-2.247 -4.224,-2.219 -4.276,-2.187C-4.328,-2.154 -4.373,-2.126 -4.413,-2.098C-4.461,-2.066 -4.505,-2.069 -4.538,-2.122C-4.574,-2.171 -4.542,-2.235 -4.441,-2.307C-4.36,-2.36 -4.268,-2.424 -4.163,-2.493C-4.054,-2.566 -3.953,-2.634 -3.86,-2.699C-3.759,-2.772 -3.671,-2.832 -3.594,-2.88C-3.521,-2.924 -3.477,-2.953 -3.461,-2.965C-3.457,-2.969 -3.413,-3.002 -3.34,-3.058C-3.268,-3.114 -3.183,-3.175 -3.09,-3.243C-2.989,-3.316 -2.884,-3.388 -2.783,-3.465C-2.683,-3.542 -2.594,-3.607 -2.521,-3.659C-2.42,-3.732 -2.352,-3.743 -2.315,-3.691C-2.283,-3.639 -2.287,-3.598 -2.34,-3.562C-2.376,-3.534 -2.412,-3.509 -2.449,-3.485C-2.477,-3.465 -2.513,-3.425 -2.562,-3.372C-2.67,-3.252 -2.719,-3.138 -2.711,-3.042C-2.699,-2.937 -2.642,-2.799 -2.537,-2.626C-2.489,-2.553 -2.433,-2.473 -2.38,-2.388C-2.324,-2.299 -2.247,-2.187 -2.146,-2.041C-2.045,-1.904 -1.92,-1.723 -1.763,-1.501C-1.605,-1.275 -1.4,-0.984 -1.15,-0.629L0,0.996Z" style="fill:white;fill-rule:nonzero;"/>
        </g>
        <g transform="matrix(1,0,0,1,46.8389,18.3289)">
            <path d="M0,9.426C-0.634,9.543 -1.247,9.535 -1.844,9.41C-2.21,9.325 -2.545,9.208 -2.84,9.055C-3.138,8.902 -3.4,8.72 -3.634,8.522C-3.864,8.321 -4.07,8.099 -4.244,7.861C-4.421,7.627 -4.57,7.393 -4.699,7.159C-4.788,6.998 -4.877,6.792 -4.961,6.554C-5.05,6.316 -5.115,6.05 -5.163,5.763C-5.212,5.477 -5.224,5.167 -5.208,4.84C-5.191,4.513 -5.131,4.175 -5.03,3.827C-4.954,3.593 -4.853,3.36 -4.728,3.121C-4.599,2.884 -4.437,2.65 -4.235,2.416C-4.038,2.177 -3.796,1.948 -3.514,1.718C-3.227,1.496 -2.888,1.274 -2.493,1.056C-2.292,0.944 -2.049,0.822 -1.767,0.694C-1.485,0.564 -1.206,0.451 -0.94,0.355C-0.722,0.286 -0.524,0.218 -0.343,0.157C-0.162,0.093 0.016,0.016 0.193,-0.069C0.278,-0.117 0.338,-0.105 0.379,-0.037C0.399,0.004 0.427,0.064 0.464,0.145C0.496,0.225 0.556,0.363 0.637,0.548C0.686,0.633 0.734,0.73 0.786,0.83C0.838,0.935 0.891,1.036 0.943,1.137C0.996,1.23 1.044,1.319 1.085,1.399C1.125,1.484 1.153,1.545 1.169,1.572C1.238,1.718 1.238,1.807 1.169,1.847C1.117,1.875 1.048,1.823 0.972,1.681C0.867,1.488 0.726,1.322 0.548,1.185C0.375,1.048 0.189,0.964 0,0.927C-0.267,0.871 -0.602,0.887 -1.013,0.976C-1.424,1.064 -1.855,1.238 -2.315,1.488C-2.642,1.665 -2.917,1.843 -3.143,2.016C-3.373,2.194 -3.558,2.364 -3.703,2.529C-3.848,2.698 -3.965,2.855 -4.046,3.009C-4.131,3.158 -4.195,3.303 -4.244,3.44C-4.429,3.997 -4.461,4.525 -4.34,5.026C-4.219,5.522 -4.021,6.022 -3.744,6.53C-3.485,7.002 -3.143,7.405 -2.727,7.744C-2.312,8.079 -1.848,8.321 -1.339,8.474C-0.835,8.623 -0.303,8.672 0.254,8.619C0.811,8.567 1.363,8.389 1.916,8.087C2.303,7.873 2.618,7.667 2.852,7.466C3.089,7.264 3.255,7.006 3.348,6.696C3.396,6.526 3.408,6.336 3.384,6.123C3.355,5.909 3.323,5.751 3.287,5.651C3.275,5.59 3.267,5.546 3.263,5.522C3.259,5.497 3.279,5.473 3.319,5.453C3.339,5.441 3.368,5.441 3.404,5.461C3.437,5.477 3.464,5.501 3.484,5.542C3.493,5.558 3.521,5.622 3.562,5.735C3.606,5.848 3.65,5.977 3.699,6.123C3.751,6.268 3.795,6.417 3.835,6.57C3.88,6.719 3.916,6.848 3.94,6.946C3.957,7.054 3.965,7.135 3.953,7.179C3.944,7.224 3.908,7.292 3.844,7.377C3.678,7.574 3.432,7.788 3.105,8.006C2.779,8.228 2.448,8.43 2.113,8.611C1.339,9.039 0.633,9.309 0,9.426" style="fill:white;fill-rule:nonzero;"/>
        </g>
        <g transform="matrix(1,0,0,1,51.4976,17.6343)">
            <path d="M0,4.768C0.351,5.204 0.742,5.542 1.178,5.785C1.613,6.026 2.073,6.168 2.561,6.208C3.049,6.248 3.545,6.18 4.045,6.006C4.295,5.917 4.578,5.772 4.885,5.567C5.191,5.361 5.457,5.075 5.679,4.704C5.905,4.336 6.042,3.881 6.095,3.332C6.147,2.784 6.038,2.126 5.768,1.356C5.55,0.723 5.264,0.19 4.913,-0.233C4.562,-0.661 4.179,-0.984 3.759,-1.206C3.339,-1.423 2.904,-1.548 2.448,-1.577C1.992,-1.605 1.549,-1.544 1.113,-1.391C0.653,-1.234 0.254,-1.012 -0.081,-0.73C-0.419,-0.447 -0.678,-0.112 -0.859,0.27C-1.037,0.658 -1.129,1.098 -1.138,1.586C-1.146,2.078 -1.049,2.61 -0.847,3.187C-0.629,3.804 -0.351,4.332 0,4.768M-2.109,2.409C-2.109,1.86 -2.005,1.319 -1.791,0.779C-1.581,0.243 -1.247,-0.258 -0.791,-0.722C-0.335,-1.186 0.274,-1.548 1.037,-1.815C1.654,-2.032 2.263,-2.141 2.864,-2.141C3.46,-2.146 4.017,-2.041 4.525,-1.831C5.034,-1.621 5.485,-1.306 5.881,-0.891C6.272,-0.471 6.579,0.045 6.792,0.662C7.002,1.255 7.091,1.856 7.062,2.461C7.034,3.066 6.897,3.631 6.647,4.159C6.401,4.683 6.042,5.159 5.578,5.579C5.11,5.998 4.545,6.325 3.884,6.555C3.134,6.817 2.44,6.914 1.811,6.85C1.178,6.785 0.613,6.611 0.121,6.329C-0.371,6.047 -0.787,5.684 -1.125,5.244C-1.468,4.809 -1.722,4.349 -1.888,3.872C-2.037,3.445 -2.109,2.957 -2.109,2.409" style="fill:white;fill-rule:nonzero;"/>
        </g>
        <g transform="matrix(1,0,0,1,64.0498,11.3865)">
            <path d="M0,10.552C-0.307,10.54 -0.605,10.483 -0.892,10.386C-0.996,10.358 -1.057,10.314 -1.085,10.258C-1.109,10.205 -1.133,10.088 -1.154,9.915C-1.198,9.58 -1.23,9.289 -1.243,9.043C-1.258,8.793 -1.267,8.616 -1.271,8.511C-1.283,8.37 -1.254,8.293 -1.194,8.285C-1.133,8.277 -1.097,8.322 -1.085,8.418C-1.077,8.479 -1.065,8.552 -1.049,8.636C-1.033,8.717 -1.008,8.805 -0.98,8.902C-0.896,9.14 -0.779,9.334 -0.633,9.491C-0.488,9.644 -0.319,9.761 -0.125,9.846C0.068,9.927 0.274,9.979 0.488,9.999C0.706,10.019 0.923,10.015 1.146,9.987C1.46,9.947 1.73,9.858 1.952,9.721C2.178,9.584 2.352,9.427 2.484,9.241C2.618,9.059 2.71,8.858 2.763,8.636C2.815,8.414 2.823,8.2 2.799,7.99C2.767,7.761 2.714,7.555 2.638,7.373C2.557,7.192 2.448,7.019 2.307,6.857C2.166,6.692 1.984,6.527 1.767,6.365C1.549,6.2 1.283,6.018 0.972,5.821L0.319,5.409C-0.073,5.167 -0.392,4.937 -0.646,4.719C-0.896,4.502 -1.101,4.284 -1.258,4.07C-1.416,3.852 -1.533,3.642 -1.609,3.433C-1.686,3.223 -1.739,3.005 -1.771,2.775C-1.815,2.425 -1.795,2.098 -1.706,1.791C-1.613,1.485 -1.468,1.21 -1.258,0.969C-1.045,0.726 -0.783,0.525 -0.464,0.367C-0.145,0.214 0.222,0.105 0.646,0.049C0.899,0.016 1.125,-0.004 1.327,-0.008C1.529,-0.012 1.714,-0.004 1.888,0.02C2.013,0.029 2.109,0.036 2.178,0.036C2.243,0.036 2.303,0.032 2.355,0.025C2.444,0.012 2.493,0.041 2.501,0.101C2.505,0.137 2.513,0.266 2.525,0.492C2.537,0.718 2.569,1.057 2.63,1.505C2.658,1.702 2.638,1.811 2.577,1.82C2.533,1.823 2.505,1.811 2.493,1.783C2.48,1.751 2.464,1.715 2.448,1.662C2.432,1.585 2.396,1.472 2.348,1.331C2.299,1.194 2.247,1.089 2.194,1.025C2.17,0.992 2.122,0.94 2.049,0.867C1.98,0.799 1.875,0.73 1.738,0.67C1.601,0.605 1.428,0.561 1.218,0.529C1.004,0.5 0.754,0.505 0.456,0.545C0,0.605 -0.367,0.787 -0.646,1.097C-0.92,1.404 -1.028,1.799 -0.964,2.283C-0.94,2.469 -0.892,2.638 -0.823,2.791C-0.754,2.949 -0.646,3.102 -0.504,3.251C-0.359,3.405 -0.169,3.562 0.064,3.727C0.294,3.893 0.585,4.078 0.932,4.284L1.339,4.526C1.767,4.784 2.122,5.022 2.404,5.256C2.69,5.486 2.92,5.712 3.098,5.933C3.275,6.156 3.404,6.385 3.489,6.619C3.574,6.853 3.63,7.103 3.667,7.365C3.683,7.499 3.69,7.656 3.683,7.845C3.674,8.035 3.646,8.237 3.59,8.447C3.529,8.66 3.444,8.874 3.324,9.092C3.207,9.31 3.041,9.511 2.832,9.697C2.582,9.939 2.287,10.12 1.956,10.249C1.625,10.379 1.278,10.463 0.919,10.511C0.613,10.552 0.302,10.564 0,10.552" style="fill:white;fill-rule:nonzero;"/>
        </g>
        <g transform="matrix(1,0,0,1,69.0552,18.0871)">
            <path d="M0,-2.195C0.008,-2.631 0.012,-2.981 0.016,-3.256C0.02,-3.53 0.024,-3.752 0.028,-3.921C0.032,-4.099 0.032,-4.236 0.028,-4.341C0.024,-4.442 0.02,-4.534 0.012,-4.623C0,-4.804 -0.036,-4.945 -0.089,-5.05C-0.137,-5.159 -0.262,-5.228 -0.456,-5.256C-0.5,-5.264 -0.564,-5.272 -0.646,-5.28C-0.734,-5.284 -0.799,-5.289 -0.855,-5.289C-0.916,-5.289 -0.944,-5.321 -0.944,-5.385C-0.944,-5.446 -0.879,-5.474 -0.758,-5.474C-0.625,-5.474 -0.484,-5.466 -0.339,-5.458C-0.194,-5.454 -0.057,-5.45 0.064,-5.45C0.198,-5.446 0.311,-5.442 0.403,-5.434C0.496,-5.43 0.557,-5.426 0.581,-5.426C0.609,-5.426 0.669,-5.426 0.762,-5.43C0.855,-5.434 0.96,-5.434 1.073,-5.43C1.198,-5.43 1.323,-5.43 1.444,-5.434L1.767,-5.434C1.9,-5.43 1.964,-5.398 1.964,-5.337C1.964,-5.272 1.924,-5.244 1.855,-5.244C1.811,-5.248 1.767,-5.248 1.722,-5.248C1.686,-5.248 1.634,-5.24 1.565,-5.224C1.412,-5.2 1.311,-5.139 1.258,-5.034C1.21,-4.934 1.174,-4.793 1.153,-4.607C1.142,-4.518 1.138,-4.422 1.129,-4.32C1.125,-4.22 1.117,-4.078 1.117,-3.901C1.113,-3.736 1.109,-3.514 1.105,-3.239C1.101,-2.965 1.093,-2.611 1.089,-2.179L1.061,-0.597C1.057,-0.19 1.073,0.16 1.113,0.459C1.149,0.758 1.206,1.012 1.279,1.23C1.351,1.451 1.44,1.633 1.541,1.778C1.646,1.928 1.759,2.06 1.879,2.178C2.162,2.44 2.432,2.609 2.703,2.69C2.973,2.766 3.275,2.811 3.61,2.815C3.973,2.823 4.316,2.754 4.634,2.613C4.958,2.472 5.223,2.286 5.429,2.048C5.708,1.726 5.897,1.339 5.986,0.883C6.079,0.431 6.127,-0.09 6.135,-0.674L6.16,-2.094C6.167,-2.529 6.171,-2.881 6.175,-3.159C6.179,-3.429 6.183,-3.655 6.179,-3.828C6.179,-4.002 6.175,-4.139 6.175,-4.24C6.171,-4.341 6.171,-4.438 6.171,-4.522C6.167,-4.704 6.135,-4.845 6.086,-4.95C6.039,-5.059 5.913,-5.127 5.719,-5.155C5.675,-5.168 5.611,-5.172 5.526,-5.18C5.441,-5.184 5.373,-5.188 5.32,-5.188C5.259,-5.192 5.227,-5.22 5.227,-5.284C5.227,-5.345 5.292,-5.377 5.417,-5.373C5.55,-5.369 5.687,-5.369 5.829,-5.361C5.969,-5.353 6.094,-5.349 6.211,-5.345C6.333,-5.345 6.437,-5.341 6.522,-5.337C6.607,-5.329 6.66,-5.329 6.679,-5.325C6.72,-5.325 6.849,-5.329 7.067,-5.333C7.285,-5.337 7.482,-5.341 7.66,-5.337C7.785,-5.337 7.845,-5.305 7.845,-5.24C7.845,-5.18 7.813,-5.148 7.749,-5.148L7.62,-5.152C7.579,-5.152 7.527,-5.148 7.458,-5.127C7.296,-5.095 7.192,-5.03 7.143,-4.934C7.091,-4.837 7.054,-4.695 7.039,-4.51C7.022,-4.422 7.022,-4.324 7.018,-4.22C7.018,-4.123 7.014,-3.986 7.01,-3.808C7.006,-3.639 7.006,-3.417 7.002,-3.143C6.994,-2.868 6.99,-2.513 6.982,-2.082L6.966,-0.872C6.958,-0.565 6.938,-0.251 6.91,0.064C6.877,0.374 6.821,0.681 6.732,0.975C6.647,1.27 6.535,1.548 6.389,1.81C6.244,2.076 6.05,2.303 5.821,2.496C5.607,2.678 5.389,2.819 5.167,2.92C4.954,3.024 4.735,3.101 4.53,3.158C4.32,3.21 4.114,3.246 3.917,3.259C3.714,3.275 3.534,3.279 3.364,3.279C3.267,3.275 3.125,3.27 2.94,3.259C2.751,3.246 2.545,3.21 2.315,3.154C2.085,3.097 1.852,3.013 1.609,2.904C1.368,2.795 1.149,2.641 0.948,2.44C0.807,2.306 0.678,2.153 0.557,1.976C0.436,1.803 0.331,1.6 0.238,1.367C0.153,1.137 0.081,0.867 0.032,0.556C-0.012,0.245 -0.032,-0.122 -0.028,-0.537L0,-2.195Z" style="fill:white;fill-rule:nonzero;"/>
        </g>
        <g transform="matrix(1,0,0,1,78.4248,18.4255)">
            <path d="M0,-2.154C0.064,-2.582 0.113,-2.933 0.153,-3.207C0.194,-3.477 0.227,-3.695 0.25,-3.86C0.278,-4.038 0.295,-4.175 0.303,-4.276C0.314,-4.377 0.323,-4.473 0.327,-4.562C0.335,-4.756 0.323,-4.905 0.287,-5.01C0.246,-5.115 0.133,-5.196 -0.057,-5.248C-0.101,-5.264 -0.161,-5.28 -0.242,-5.296C-0.326,-5.312 -0.395,-5.324 -0.447,-5.333C-0.508,-5.341 -0.536,-5.377 -0.524,-5.438C-0.517,-5.498 -0.451,-5.522 -0.326,-5.502C-0.197,-5.482 -0.057,-5.462 0.093,-5.433C0.238,-5.409 0.375,-5.385 0.5,-5.369C0.629,-5.349 0.742,-5.328 0.831,-5.312C0.924,-5.296 0.98,-5.284 1.009,-5.28C1.069,-5.272 1.166,-5.26 1.299,-5.244C1.433,-5.232 1.577,-5.212 1.73,-5.187C1.892,-5.163 2.05,-5.143 2.215,-5.123C2.376,-5.107 2.521,-5.087 2.654,-5.066C3.021,-5.01 3.332,-4.941 3.582,-4.857C3.836,-4.772 4.042,-4.679 4.199,-4.587C4.36,-4.489 4.485,-4.401 4.57,-4.316C4.659,-4.232 4.724,-4.163 4.768,-4.114C4.885,-3.969 4.985,-3.776 5.078,-3.526C5.171,-3.271 5.195,-2.993 5.151,-2.691C5.091,-2.287 4.966,-1.932 4.771,-1.622C4.582,-1.315 4.336,-1.065 4.038,-0.871C3.743,-0.678 3.404,-0.545 3.021,-0.472C2.643,-0.396 2.227,-0.391 1.779,-0.456C1.742,-0.464 1.687,-0.472 1.605,-0.484C1.537,-0.492 1.484,-0.505 1.452,-0.517C1.428,-0.525 1.4,-0.537 1.376,-0.565C1.355,-0.589 1.348,-0.613 1.348,-0.642C1.355,-0.686 1.38,-0.71 1.42,-0.726C1.465,-0.734 1.545,-0.734 1.666,-0.714C1.984,-0.67 2.275,-0.674 2.55,-0.726C2.819,-0.783 3.065,-0.876 3.279,-1.008C3.497,-1.142 3.675,-1.311 3.812,-1.517C3.949,-1.718 4.038,-1.948 4.074,-2.202C4.086,-2.291 4.099,-2.4 4.106,-2.533C4.118,-2.662 4.114,-2.812 4.094,-2.969C4.07,-3.13 4.029,-3.296 3.965,-3.473C3.9,-3.647 3.8,-3.82 3.663,-3.993C3.537,-4.163 3.4,-4.3 3.255,-4.397C3.106,-4.493 2.965,-4.566 2.832,-4.619C2.694,-4.667 2.565,-4.703 2.444,-4.723C2.327,-4.739 2.243,-4.752 2.179,-4.76C2.082,-4.772 1.969,-4.784 1.827,-4.784C1.69,-4.788 1.59,-4.784 1.525,-4.776C1.461,-4.776 1.42,-4.711 1.404,-4.578L0.738,-0.032C0.657,0.512 0.589,0.992 0.532,1.411C0.477,1.835 0.439,2.162 0.436,2.391C0.428,2.561 0.448,2.698 0.488,2.807C0.528,2.916 0.638,3.001 0.807,3.049C0.884,3.081 0.973,3.106 1.077,3.13C1.182,3.154 1.259,3.17 1.312,3.178C1.376,3.186 1.4,3.222 1.392,3.283C1.384,3.344 1.315,3.368 1.194,3.347C1.037,3.324 0.876,3.299 0.71,3.271C0.545,3.242 0.392,3.215 0.259,3.19C0.121,3.166 0.008,3.146 -0.089,3.126C-0.186,3.11 -0.233,3.097 -0.246,3.097C-0.254,3.097 -0.302,3.09 -0.391,3.081C-0.479,3.074 -0.581,3.065 -0.701,3.049C-0.822,3.037 -0.943,3.025 -1.068,3.009C-1.198,2.996 -1.307,2.98 -1.396,2.969C-1.517,2.952 -1.573,2.912 -1.564,2.851C-1.557,2.791 -1.521,2.763 -1.46,2.771C-1.403,2.779 -1.347,2.783 -1.278,2.783C-1.214,2.783 -1.149,2.783 -1.097,2.771C-0.979,2.763 -0.899,2.71 -0.851,2.614C-0.807,2.517 -0.758,2.388 -0.706,2.226C-0.637,2.004 -0.572,1.682 -0.504,1.262C-0.439,0.839 -0.367,0.359 -0.286,-0.182L0,-2.154Z" style="fill:white;fill-rule:nonzero;"/>
        </g>
        <g transform="matrix(1,0,0,1,85.1328,20.1841)">
            <path d="M0,-2.731C0.113,-3.15 0.206,-3.493 0.278,-3.755C0.347,-4.022 0.407,-4.235 0.448,-4.397C0.496,-4.57 0.528,-4.703 0.553,-4.804C0.573,-4.901 0.593,-4.998 0.605,-5.083C0.638,-5.276 0.646,-5.425 0.617,-5.534C0.593,-5.643 0.488,-5.736 0.307,-5.809C0.267,-5.833 0.21,-5.853 0.125,-5.881C0.049,-5.905 -0.02,-5.925 -0.072,-5.941C-0.129,-5.958 -0.153,-5.994 -0.137,-6.055C-0.121,-6.115 -0.053,-6.127 0.068,-6.095C0.197,-6.063 0.331,-6.023 0.476,-5.978C0.621,-5.934 0.759,-5.897 0.884,-5.861C1.013,-5.825 1.121,-5.793 1.21,-5.768C1.299,-5.74 1.352,-5.724 1.371,-5.716C1.375,-5.716 1.444,-5.696 1.573,-5.663C1.702,-5.627 1.855,-5.586 2.037,-5.538C2.223,-5.486 2.424,-5.434 2.638,-5.377C2.86,-5.316 3.069,-5.26 3.263,-5.204C3.461,-5.151 3.634,-5.106 3.779,-5.066C3.925,-5.03 4.018,-5.002 4.062,-4.99C4.175,-4.97 4.279,-4.954 4.376,-4.941C4.474,-4.929 4.546,-4.921 4.59,-4.917C4.618,-4.917 4.646,-4.921 4.675,-4.929C4.707,-4.933 4.731,-4.933 4.76,-4.925C4.792,-4.917 4.8,-4.877 4.784,-4.812C4.771,-4.768 4.743,-4.711 4.703,-4.647C4.663,-4.578 4.61,-4.469 4.554,-4.32C4.546,-4.296 4.529,-4.252 4.514,-4.191C4.489,-4.127 4.465,-4.058 4.437,-3.981C4.404,-3.909 4.381,-3.836 4.356,-3.772C4.332,-3.703 4.315,-3.655 4.296,-3.622C4.279,-3.598 4.26,-3.578 4.235,-3.554C4.211,-3.534 4.187,-3.525 4.163,-3.534C4.103,-3.55 4.086,-3.602 4.11,-3.699C4.122,-3.739 4.135,-3.8 4.143,-3.877C4.154,-3.949 4.158,-4.026 4.15,-4.103C4.143,-4.147 4.131,-4.191 4.11,-4.235C4.09,-4.276 4.054,-4.316 4.001,-4.36C3.949,-4.405 3.876,-4.445 3.791,-4.494C3.703,-4.542 3.582,-4.594 3.433,-4.651C3.384,-4.675 3.279,-4.708 3.118,-4.756C2.957,-4.804 2.783,-4.856 2.602,-4.909C2.42,-4.965 2.251,-5.014 2.098,-5.054C1.944,-5.095 1.848,-5.119 1.815,-5.131C1.771,-5.139 1.738,-5.106 1.719,-5.03L0.92,-2.069C0.903,-1.993 0.911,-1.948 0.956,-1.937C0.988,-1.928 1.093,-1.9 1.263,-1.856C1.444,-1.807 1.638,-1.755 1.852,-1.694C2.065,-1.638 2.267,-1.585 2.456,-1.541C2.646,-1.493 2.775,-1.464 2.848,-1.457C2.985,-1.436 3.102,-1.42 3.19,-1.408C3.279,-1.4 3.364,-1.416 3.437,-1.46C3.558,-1.529 3.626,-1.561 3.643,-1.557C3.687,-1.545 3.699,-1.509 3.683,-1.448C3.675,-1.412 3.646,-1.352 3.598,-1.263C3.55,-1.178 3.497,-1.045 3.429,-0.872C3.384,-0.763 3.336,-0.633 3.283,-0.476C3.23,-0.323 3.198,-0.222 3.187,-0.178C3.179,-0.137 3.158,-0.093 3.134,-0.049C3.11,-0.008 3.073,0.012 3.033,-0.004C2.98,-0.017 2.965,-0.057 2.985,-0.125C2.993,-0.178 3.009,-0.234 3.021,-0.295C3.033,-0.355 3.033,-0.424 3.029,-0.497C3.033,-0.581 3.005,-0.658 2.948,-0.738C2.893,-0.819 2.755,-0.9 2.541,-0.988C2.465,-1.017 2.344,-1.057 2.178,-1.114C2.005,-1.166 1.835,-1.222 1.654,-1.275C1.477,-1.327 1.311,-1.376 1.158,-1.416C1.004,-1.457 0.903,-1.484 0.847,-1.497C0.799,-1.513 0.767,-1.493 0.75,-1.44L0.504,-0.533C0.48,-0.436 0.443,-0.299 0.392,-0.109C0.343,0.068 0.295,0.258 0.238,0.456C0.186,0.653 0.138,0.834 0.093,1.008C0.049,1.169 0.021,1.274 0.004,1.327C-0.032,1.508 -0.053,1.662 -0.048,1.787C-0.048,1.912 -0.008,2.017 0.077,2.109C0.157,2.202 0.278,2.279 0.443,2.347C0.609,2.416 0.835,2.488 1.117,2.561C1.259,2.602 1.448,2.645 1.683,2.702C1.916,2.755 2.113,2.771 2.275,2.75C2.44,2.723 2.577,2.666 2.687,2.581C2.795,2.497 2.896,2.347 2.993,2.133C3.045,2.029 3.102,1.984 3.15,1.997C3.187,2.008 3.202,2.029 3.202,2.065C3.198,2.101 3.194,2.142 3.183,2.186C3.179,2.202 3.158,2.254 3.126,2.343C3.094,2.428 3.054,2.529 3.005,2.638C2.957,2.75 2.912,2.855 2.864,2.956C2.819,3.061 2.779,3.138 2.747,3.194C2.711,3.259 2.674,3.307 2.634,3.335C2.594,3.364 2.549,3.384 2.501,3.388C2.452,3.396 2.392,3.388 2.319,3.376C2.247,3.36 2.154,3.335 2.041,3.307C1.613,3.19 1.242,3.085 0.916,2.989C0.593,2.896 0.318,2.811 0.093,2.739C-0.146,2.658 -0.339,2.597 -0.492,2.553C-0.637,2.517 -0.754,2.484 -0.839,2.46C-0.855,2.456 -0.907,2.44 -1.004,2.416C-1.101,2.392 -1.206,2.367 -1.327,2.343C-1.444,2.319 -1.557,2.295 -1.674,2.27C-1.787,2.242 -1.896,2.218 -1.988,2.19C-2.109,2.158 -2.162,2.113 -2.146,2.053C-2.13,1.992 -2.089,1.972 -2.029,1.988C-1.977,2 -1.92,2.013 -1.852,2.017C-1.782,2.02 -1.722,2.024 -1.67,2.033C-1.557,2.045 -1.468,2 -1.412,1.908C-1.355,1.815 -1.291,1.69 -1.222,1.533C-1.125,1.323 -1.021,1.008 -0.903,0.601C-0.791,0.189 -0.661,-0.279 -0.521,-0.807L0,-2.731Z" style="fill:white;fill-rule:nonzero;"/>
        </g>
        <g transform="matrix(1,0,0,1,91.8008,22.4499)">
            <path d="M0,-1.923C-0.024,-1.867 -0.021,-1.81 0.016,-1.757C0.048,-1.717 0.101,-1.669 0.177,-1.621C0.25,-1.568 0.339,-1.516 0.443,-1.451C0.548,-1.386 0.657,-1.33 0.778,-1.27C0.899,-1.213 1.021,-1.157 1.141,-1.104C1.27,-1.052 1.411,-1.004 1.557,-0.963C1.702,-0.919 1.859,-0.919 2.028,-0.955C2.267,-1 2.504,-1.132 2.738,-1.35C2.973,-1.568 3.17,-1.879 3.335,-2.282C3.605,-2.935 3.654,-3.508 3.469,-4C3.283,-4.492 2.903,-4.86 2.318,-5.102C2.157,-5.17 2,-5.226 1.847,-5.275C1.693,-5.323 1.585,-5.352 1.524,-5.36C1.452,-5.352 1.407,-5.323 1.387,-5.271L0,-1.923ZM-0.569,-3.19C-0.399,-3.593 -0.267,-3.92 -0.162,-4.174C-0.057,-4.428 0.027,-4.633 0.092,-4.787C0.161,-4.948 0.213,-5.081 0.246,-5.178C0.282,-5.271 0.311,-5.364 0.339,-5.448C0.395,-5.634 0.419,-5.783 0.407,-5.892C0.395,-6.001 0.302,-6.11 0.137,-6.207C0.097,-6.231 0.04,-6.263 -0.037,-6.299C-0.113,-6.336 -0.174,-6.364 -0.223,-6.384C-0.278,-6.408 -0.299,-6.449 -0.274,-6.505C-0.25,-6.562 -0.182,-6.566 -0.065,-6.517C0.056,-6.469 0.189,-6.412 0.33,-6.348C0.472,-6.283 0.604,-6.227 0.726,-6.178C0.847,-6.126 0.956,-6.082 1.04,-6.041C1.129,-5.997 1.182,-5.973 1.197,-5.969C1.226,-5.957 1.294,-5.928 1.411,-5.888C1.524,-5.843 1.653,-5.791 1.794,-5.735C1.932,-5.678 2.073,-5.622 2.218,-5.565C2.363,-5.513 2.477,-5.465 2.561,-5.432C2.903,-5.291 3.242,-5.118 3.573,-4.92C3.908,-4.718 4.178,-4.46 4.384,-4.146C4.429,-4.069 4.477,-3.972 4.525,-3.851C4.577,-3.73 4.614,-3.589 4.642,-3.436C4.666,-3.278 4.675,-3.117 4.666,-2.944C4.658,-2.77 4.618,-2.592 4.541,-2.415C4.384,-2.028 4.126,-1.685 3.775,-1.375C3.42,-1.064 2.907,-0.802 2.234,-0.584C2.443,0.158 2.642,0.832 2.831,1.449C3.017,2.062 3.194,2.595 3.372,3.05C3.533,3.466 3.694,3.752 3.848,3.917C3.997,4.079 4.142,4.2 4.275,4.272C4.372,4.333 4.452,4.377 4.505,4.406C4.562,4.434 4.605,4.454 4.638,4.466C4.707,4.494 4.727,4.538 4.702,4.595C4.687,4.627 4.662,4.643 4.618,4.639C4.577,4.636 4.505,4.615 4.408,4.571L3.734,4.293C3.424,4.163 3.194,4.051 3.049,3.954C2.903,3.853 2.774,3.74 2.666,3.607C2.48,3.385 2.331,3.103 2.218,2.76C2.109,2.417 1.98,1.986 1.831,1.465C1.774,1.28 1.718,1.086 1.665,0.889C1.613,0.686 1.564,0.501 1.521,0.324C1.472,0.146 1.432,-0.015 1.392,-0.169C1.354,-0.318 1.322,-0.443 1.294,-0.54C1.27,-0.596 1.229,-0.64 1.173,-0.661L-0.19,-1.254C-0.238,-1.274 -0.278,-1.257 -0.303,-1.197L-0.399,-0.955C-0.613,-0.447 -0.795,0.001 -0.952,0.392C-1.109,0.784 -1.219,1.09 -1.283,1.312C-1.331,1.473 -1.348,1.61 -1.331,1.731C-1.319,1.844 -1.234,1.949 -1.081,2.042C-1.013,2.09 -0.933,2.135 -0.839,2.187C-0.742,2.231 -0.67,2.268 -0.622,2.288C-0.565,2.312 -0.549,2.352 -0.573,2.409C-0.598,2.465 -0.666,2.473 -0.779,2.425C-0.928,2.365 -1.077,2.3 -1.227,2.231C-1.376,2.167 -1.513,2.106 -1.638,2.05C-1.763,1.994 -1.868,1.945 -1.952,1.905C-2.037,1.865 -2.082,1.844 -2.09,1.84C-2.255,1.78 -2.396,1.731 -2.509,1.687C-2.622,1.647 -2.739,1.602 -2.864,1.554C-2.985,1.505 -3.09,1.469 -3.175,1.433C-3.288,1.389 -3.332,1.332 -3.308,1.276C-3.284,1.219 -3.247,1.203 -3.187,1.227C-3.139,1.247 -3.082,1.267 -3.018,1.284C-2.953,1.3 -2.893,1.312 -2.836,1.316C-2.719,1.332 -2.626,1.304 -2.562,1.219C-2.493,1.139 -2.412,1.025 -2.324,0.88C-2.203,0.679 -2.062,0.384 -1.896,-0.007C-1.727,-0.394 -1.541,-0.846 -1.327,-1.354L-0.569,-3.19Z" style="fill:white;fill-rule:nonzero;"/>
        </g>
        <g transform="matrix(1,0,0,1,98.3994,22.6602)">
            <path d="M0,2.122C-0.263,2.602 -0.496,3.029 -0.694,3.405C-0.896,3.78 -1.041,4.078 -1.126,4.292C-1.19,4.445 -1.23,4.578 -1.238,4.691C-1.247,4.8 -1.182,4.909 -1.041,5.018C-0.973,5.075 -0.892,5.135 -0.803,5.195C-0.714,5.252 -0.646,5.296 -0.598,5.321C-0.545,5.349 -0.532,5.393 -0.564,5.445C-0.593,5.502 -0.662,5.498 -0.771,5.437C-0.912,5.361 -1.053,5.28 -1.198,5.195C-1.344,5.111 -1.477,5.034 -1.598,4.961C-1.723,4.889 -1.823,4.829 -1.904,4.78C-1.98,4.731 -2.025,4.707 -2.033,4.704L-2.179,4.631C-2.255,4.595 -2.348,4.546 -2.457,4.494L-2.783,4.332C-2.893,4.276 -2.985,4.227 -3.065,4.183C-3.175,4.122 -3.215,4.066 -3.183,4.014C-3.154,3.957 -3.11,3.945 -3.058,3.973C-3.01,4.001 -2.957,4.026 -2.893,4.05C-2.832,4.074 -2.771,4.09 -2.715,4.102C-2.602,4.131 -2.505,4.11 -2.429,4.038C-2.348,3.969 -2.259,3.86 -2.162,3.723C-2.029,3.534 -1.855,3.255 -1.646,2.888C-1.433,2.517 -1.194,2.094 -0.932,1.61L0.024,-0.137C0.233,-0.516 0.403,-0.827 0.536,-1.068C0.665,-1.307 0.771,-1.5 0.851,-1.649C0.939,-1.803 1.004,-1.928 1.049,-2.021C1.093,-2.109 1.133,-2.198 1.17,-2.278C1.242,-2.456 1.282,-2.601 1.282,-2.711C1.278,-2.815 1.23,-2.912 1.133,-2.993C1.081,-3.041 1.028,-3.086 0.976,-3.118C0.923,-3.15 0.879,-3.178 0.839,-3.198C0.782,-3.231 0.771,-3.271 0.803,-3.327C0.831,-3.38 0.903,-3.38 1.012,-3.319C1.097,-3.271 1.193,-3.214 1.303,-3.15C1.415,-3.086 1.521,-3.025 1.621,-2.968C1.73,-2.912 1.823,-2.856 1.899,-2.811C1.972,-2.763 2.017,-2.738 2.032,-2.731C2.041,-2.722 2.089,-2.702 2.17,-2.662C2.255,-2.622 2.348,-2.573 2.448,-2.517C2.557,-2.456 2.666,-2.399 2.783,-2.339C2.896,-2.283 2.992,-2.234 3.069,-2.19C3.182,-2.129 3.219,-2.073 3.19,-2.021C3.158,-1.964 3.117,-1.956 3.062,-1.984C3.025,-2.004 2.984,-2.028 2.948,-2.049C2.916,-2.065 2.863,-2.081 2.795,-2.101C2.638,-2.146 2.517,-2.142 2.432,-2.085C2.348,-2.033 2.246,-1.92 2.134,-1.75C2.093,-1.673 2.045,-1.589 1.992,-1.504C1.939,-1.416 1.867,-1.295 1.782,-1.141C1.706,-0.992 1.597,-0.798 1.468,-0.556C1.335,-0.318 1.165,-0.008 0.956,0.375L0,2.122Z" style="fill:white;fill-rule:nonzero;"/>
        </g>
        <g transform="matrix(1,0,0,1,100.804,27.9568)">
            <path d="M0,-1.303C-0.158,-0.767 -0.21,-0.25 -0.162,0.246C-0.105,0.742 0.04,1.201 0.286,1.621C0.532,2.049 0.87,2.416 1.303,2.722C1.512,2.88 1.794,3.025 2.142,3.158C2.488,3.291 2.871,3.347 3.303,3.319C3.73,3.291 4.187,3.142 4.666,2.871C5.146,2.601 5.622,2.137 6.102,1.476C6.493,0.931 6.764,0.391 6.917,-0.137C7.066,-0.67 7.106,-1.17 7.05,-1.638C6.989,-2.11 6.84,-2.537 6.606,-2.928C6.364,-3.316 6.062,-3.647 5.687,-3.917C5.296,-4.203 4.884,-4.401 4.46,-4.518C4.037,-4.631 3.613,-4.655 3.194,-4.582C2.774,-4.506 2.363,-4.332 1.956,-4.058C1.552,-3.784 1.169,-3.397 0.814,-2.905C0.431,-2.372 0.156,-1.84 0,-1.303M0.726,-4.381C1.173,-4.695 1.682,-4.921 2.242,-5.054C2.807,-5.187 3.404,-5.203 4.049,-5.091C4.69,-4.986 5.336,-4.691 5.989,-4.223C6.521,-3.84 6.961,-3.401 7.304,-2.912C7.651,-2.425 7.881,-1.908 8.002,-1.372C8.119,-0.831 8.119,-0.282 8.006,0.278C7.889,0.839 7.639,1.387 7.256,1.916C6.889,2.424 6.449,2.843 5.937,3.166C5.425,3.489 4.88,3.698 4.308,3.799C3.73,3.9 3.142,3.876 2.528,3.735C1.915,3.593 1.326,3.315 0.758,2.908C0.112,2.44 -0.363,1.928 -0.674,1.375C-0.98,0.819 -1.158,0.258 -1.211,-0.307C-1.259,-0.876 -1.202,-1.424 -1.037,-1.952C-0.872,-2.485 -0.642,-2.953 -0.348,-3.36C-0.081,-3.727 0.277,-4.07 0.726,-4.381" style="fill:white;fill-rule:nonzero;"/>
        </g>
        <g transform="matrix(1,0,0,1,109.951,35.4793)">
            <path d="M0,-3.469C-0.04,-3.425 -0.057,-3.372 -0.044,-3.308C-0.032,-3.26 -0.004,-3.199 0.049,-3.122C0.097,-3.046 0.157,-2.961 0.229,-2.864C0.303,-2.767 0.383,-2.666 0.472,-2.566C0.557,-2.469 0.646,-2.368 0.742,-2.275C0.843,-2.178 0.952,-2.081 1.068,-1.985C1.19,-1.892 1.331,-1.827 1.505,-1.799C1.738,-1.747 2.009,-1.779 2.312,-1.892C2.609,-2.005 2.916,-2.215 3.223,-2.521C3.723,-3.021 3.981,-3.533 3.997,-4.058C4.018,-4.586 3.804,-5.071 3.359,-5.514C3.239,-5.639 3.114,-5.756 2.993,-5.857C2.868,-5.962 2.779,-6.031 2.723,-6.059C2.654,-6.079 2.602,-6.071 2.565,-6.031L0,-3.469ZM-0.036,-4.857C0.271,-5.163 0.521,-5.417 0.714,-5.611C0.907,-5.804 1.064,-5.958 1.182,-6.079C1.307,-6.204 1.403,-6.304 1.477,-6.381C1.545,-6.454 1.605,-6.527 1.662,-6.595C1.787,-6.744 1.867,-6.873 1.899,-6.978C1.928,-7.087 1.884,-7.22 1.767,-7.374C1.738,-7.41 1.698,-7.462 1.642,-7.523C1.585,-7.587 1.541,-7.636 1.505,-7.672C1.46,-7.72 1.46,-7.761 1.505,-7.805C1.549,-7.849 1.613,-7.829 1.698,-7.74C1.795,-7.648 1.896,-7.543 2.001,-7.43C2.105,-7.317 2.206,-7.216 2.303,-7.123C2.396,-7.027 2.473,-6.946 2.541,-6.873C2.605,-6.801 2.646,-6.757 2.658,-6.744C2.674,-6.724 2.73,-6.676 2.823,-6.591C2.912,-6.506 3.009,-6.409 3.118,-6.304C3.223,-6.196 3.332,-6.091 3.444,-5.986C3.558,-5.877 3.646,-5.792 3.711,-5.732C3.973,-5.469 4.219,-5.179 4.453,-4.869C4.683,-4.554 4.832,-4.211 4.9,-3.844C4.913,-3.756 4.921,-3.647 4.921,-3.517C4.921,-3.385 4.904,-3.243 4.868,-3.09C4.832,-2.932 4.78,-2.78 4.703,-2.622C4.626,-2.469 4.521,-2.32 4.385,-2.182C4.09,-1.888 3.723,-1.666 3.279,-1.517C2.831,-1.364 2.259,-1.319 1.549,-1.376C1.46,-0.614 1.388,0.089 1.323,0.726C1.259,1.367 1.227,1.932 1.214,2.42C1.206,2.864 1.242,3.19 1.319,3.4C1.396,3.61 1.484,3.775 1.577,3.892C1.646,3.985 1.702,4.053 1.742,4.102C1.783,4.15 1.815,4.186 1.844,4.211C1.892,4.263 1.896,4.307 1.852,4.352C1.827,4.376 1.795,4.38 1.755,4.36C1.718,4.34 1.662,4.296 1.585,4.219L1.068,3.702C0.835,3.465 0.666,3.271 0.568,3.126C0.472,2.981 0.399,2.823 0.347,2.662C0.262,2.387 0.229,2.069 0.258,1.71C0.286,1.351 0.331,0.899 0.396,0.359C0.415,0.169 0.436,-0.029 0.464,-0.234C0.492,-0.436 0.521,-0.63 0.545,-0.811C0.568,-0.992 0.593,-1.162 0.617,-1.315C0.638,-1.469 0.653,-1.594 0.666,-1.695C0.666,-1.759 0.646,-1.811 0.601,-1.856L-0.432,-2.925C-0.468,-2.961 -0.508,-2.957 -0.553,-2.916L-0.742,-2.727C-1.129,-2.34 -1.468,-1.993 -1.763,-1.695C-2.057,-1.396 -2.279,-1.154 -2.42,-0.972C-2.529,-0.839 -2.598,-0.718 -2.63,-0.605C-2.658,-0.492 -2.622,-0.363 -2.513,-0.222C-2.473,-0.15 -2.416,-0.077 -2.348,0.004C-2.279,0.084 -2.227,0.145 -2.187,0.185C-2.142,0.226 -2.142,0.27 -2.187,0.314C-2.23,0.359 -2.299,0.335 -2.384,0.25C-2.497,0.137 -2.609,0.02 -2.719,-0.097C-2.835,-0.218 -2.937,-0.327 -3.033,-0.428C-3.126,-0.529 -3.202,-0.614 -3.268,-0.682C-3.327,-0.751 -3.364,-0.787 -3.368,-0.795C-3.501,-0.912 -3.61,-1.013 -3.699,-1.094C-3.787,-1.174 -3.876,-1.259 -3.977,-1.351C-4.07,-1.444 -4.15,-1.521 -4.215,-1.581C-4.304,-1.67 -4.324,-1.735 -4.279,-1.779C-4.235,-1.823 -4.19,-1.823 -4.15,-1.779C-4.11,-1.743 -4.065,-1.702 -4.014,-1.662C-3.961,-1.622 -3.908,-1.59 -3.856,-1.561C-3.759,-1.501 -3.662,-1.492 -3.565,-1.545C-3.473,-1.594 -3.359,-1.67 -3.219,-1.771C-3.033,-1.908 -2.783,-2.126 -2.48,-2.425C-2.178,-2.719 -1.835,-3.062 -1.444,-3.449L-0.036,-4.857Z" style="fill:white;fill-rule:nonzero;"/>
        </g>
        <g transform="matrix(1,0,0,1,114.344,41.5017)">
            <path d="M0,2.117C-0.174,1.403 -0.202,0.693 -0.085,-0.013C-0.013,-0.436 0.104,-0.827 0.271,-1.178C0.436,-1.529 0.625,-1.848 0.847,-2.126C1.064,-2.413 1.303,-2.663 1.564,-2.889C1.827,-3.114 2.089,-3.312 2.359,-3.482C2.545,-3.603 2.775,-3.724 3.049,-3.844C3.319,-3.969 3.626,-4.07 3.957,-4.151C4.287,-4.232 4.646,-4.28 5.029,-4.297C5.417,-4.308 5.808,-4.272 6.212,-4.183C6.481,-4.127 6.76,-4.034 7.046,-3.913C7.337,-3.796 7.619,-3.627 7.897,-3.421C8.18,-3.211 8.467,-2.953 8.753,-2.647C9.035,-2.344 9.317,-1.973 9.592,-1.537C9.736,-1.316 9.894,-1.053 10.06,-0.751C10.229,-0.448 10.37,-0.142 10.499,0.169C10.596,0.407 10.692,0.629 10.777,0.83C10.866,1.032 10.959,1.225 11.06,1.415C11.088,1.48 11.1,1.528 11.096,1.56C11.088,1.589 11.063,1.617 11.027,1.641C10.983,1.669 10.915,1.705 10.822,1.75C10.729,1.79 10.575,1.871 10.366,1.984C10.273,2.036 10.164,2.093 10.048,2.165C9.931,2.234 9.817,2.306 9.7,2.379C9.592,2.448 9.491,2.512 9.397,2.565C9.305,2.621 9.236,2.661 9.192,2.69C9.031,2.783 8.935,2.799 8.894,2.738C8.854,2.678 8.914,2.597 9.071,2.5C9.289,2.359 9.475,2.181 9.632,1.968C9.785,1.75 9.882,1.528 9.91,1.298C9.959,0.995 9.918,0.6 9.785,0.117C9.656,-0.363 9.431,-0.856 9.12,-1.344C8.878,-1.719 8.647,-2.029 8.422,-2.272C8.196,-2.518 7.979,-2.719 7.772,-2.873C7.559,-3.026 7.361,-3.143 7.176,-3.223C6.986,-3.304 6.812,-3.361 6.655,-3.397C5.998,-3.554 5.385,-3.538 4.812,-3.357C4.239,-3.175 3.666,-2.901 3.094,-2.534C2.553,-2.191 2.105,-1.763 1.738,-1.251C1.371,-0.739 1.113,-0.182 0.964,0.411C0.814,1.008 0.786,1.625 0.875,2.266C0.964,2.908 1.202,3.525 1.581,4.121C1.855,4.549 2.13,4.9 2.408,5.179C2.687,5.457 3.013,5.634 3.388,5.711C3.59,5.747 3.812,5.739 4.058,5.682C4.3,5.63 4.478,5.574 4.594,5.525C4.719,5.473 4.796,5.477 4.832,5.529C4.853,5.557 4.849,5.59 4.82,5.622C4.796,5.654 4.76,5.682 4.715,5.715C4.69,5.727 4.618,5.763 4.493,5.824C4.368,5.884 4.223,5.949 4.058,6.021C3.896,6.094 3.727,6.167 3.558,6.235C3.384,6.3 3.239,6.352 3.126,6.385C2.997,6.412 2.908,6.425 2.855,6.421C2.808,6.417 2.727,6.376 2.613,6.3C2.497,6.219 2.371,6.106 2.238,5.973C2.105,5.836 1.973,5.687 1.839,5.521C1.706,5.352 1.573,5.179 1.44,4.997C1.307,4.811 1.182,4.63 1.068,4.452C0.528,3.609 0.173,2.831 0,2.117" style="fill:white;fill-rule:nonzero;"/>
        </g>
        <g transform="matrix(1,0,0,1,120.314,53.2148)">
            <path d="M0,-4.663C-0.416,-4.288 -0.734,-3.881 -0.948,-3.429C-1.166,-2.981 -1.283,-2.513 -1.295,-2.021C-1.308,-1.537 -1.215,-1.045 -1.013,-0.553C-0.912,-0.307 -0.751,-0.037 -0.524,0.258C-0.303,0.556 0,0.802 0.379,1.004C0.758,1.206 1.226,1.318 1.774,1.339C2.323,1.363 2.977,1.218 3.727,0.907C4.352,0.649 4.864,0.335 5.271,-0.037C5.675,-0.412 5.978,-0.815 6.175,-1.243C6.368,-1.674 6.47,-2.118 6.474,-2.574C6.474,-3.029 6.389,-3.473 6.211,-3.897C6.025,-4.345 5.784,-4.732 5.481,-5.054C5.183,-5.373 4.836,-5.615 4.44,-5.772C4.045,-5.93 3.602,-5.998 3.113,-5.978C2.621,-5.958 2.097,-5.829 1.532,-5.595C0.923,-5.349 0.415,-5.034 0,-4.663M2.234,-6.902C2.782,-6.93 3.331,-6.857 3.88,-6.676C4.429,-6.494 4.944,-6.188 5.437,-5.76C5.925,-5.329 6.324,-4.744 6.631,-3.997C6.881,-3.392 7.022,-2.788 7.059,-2.19C7.095,-1.594 7.022,-1.033 6.841,-0.513C6.659,0.004 6.373,0.476 5.978,0.891C5.586,1.307 5.086,1.641 4.48,1.891C3.9,2.129 3.307,2.254 2.702,2.258C2.093,2.267 1.521,2.158 0.979,1.944C0.439,1.726 -0.053,1.391 -0.496,0.952C-0.944,0.508 -1.304,-0.037 -1.569,-0.682C-1.872,-1.42 -2.009,-2.106 -1.98,-2.739C-1.948,-3.376 -1.808,-3.945 -1.553,-4.454C-1.299,-4.961 -0.96,-5.397 -0.541,-5.76C-0.121,-6.127 0.322,-6.406 0.786,-6.599C1.206,-6.768 1.689,-6.873 2.234,-6.902" style="fill:white;fill-rule:nonzero;"/>
        </g>
        <g transform="matrix(1,0,0,1,124.068,57.9496)">
            <path d="M0,8.067C-0.093,8.095 -0.197,8.132 -0.311,8.172C-0.424,8.213 -0.532,8.265 -0.629,8.329C-0.729,8.394 -0.818,8.475 -0.896,8.563C-0.972,8.648 -1.017,8.757 -1.024,8.886C-1.045,9.059 -1.045,9.217 -1.024,9.354C-1.008,9.487 -0.992,9.588 -0.98,9.649C-0.968,9.709 -0.988,9.745 -1.041,9.753C-1.073,9.761 -1.105,9.745 -1.129,9.705C-1.157,9.665 -1.174,9.612 -1.189,9.544C-1.206,9.471 -1.226,9.354 -1.254,9.184C-1.286,9.011 -1.318,8.825 -1.355,8.62C-1.396,8.414 -1.428,8.216 -1.456,8.027C-1.488,7.833 -1.509,7.684 -1.521,7.575C-1.532,7.434 -1.532,7.341 -1.524,7.301C-1.513,7.256 -1.496,7.232 -1.468,7.228C-1.428,7.22 -1.392,7.236 -1.363,7.289C-1.347,7.321 -1.303,7.333 -1.226,7.329C-1.149,7.321 -1.061,7.297 -0.964,7.26L4.521,5.579L4.518,5.554L-1.689,3.941C-1.96,3.868 -2.134,3.816 -2.219,3.784C-2.303,3.751 -2.348,3.707 -2.359,3.654C-2.371,3.602 -2.344,3.546 -2.283,3.485C-2.227,3.424 -2.105,3.316 -1.932,3.162C-1.807,3.058 -1.646,2.921 -1.444,2.751C-1.242,2.586 -1.032,2.412 -0.807,2.231C-0.581,2.049 -0.363,1.872 -0.153,1.702C0.057,1.533 0.229,1.4 0.363,1.303C0.517,1.178 0.727,1.017 0.992,0.815C1.259,0.609 1.529,0.403 1.803,0.193C2.077,-0.016 2.331,-0.205 2.573,-0.387C2.812,-0.564 2.985,-0.694 3.086,-0.77L3.073,-0.819L-2.013,-0.25C-2.102,-0.242 -2.194,-0.226 -2.291,-0.205C-2.384,-0.185 -2.48,-0.169 -2.577,-0.149C-2.738,-0.117 -2.823,-0.004 -2.831,0.186C-2.84,0.291 -2.84,0.38 -2.831,0.46C-2.823,0.537 -2.815,0.601 -2.808,0.646C-2.795,0.702 -2.815,0.742 -2.863,0.75C-2.937,0.766 -2.984,0.702 -3.013,0.565C-3.033,0.46 -3.053,0.347 -3.073,0.23C-3.094,0.113 -3.109,0.004 -3.126,-0.097C-3.142,-0.198 -3.158,-0.286 -3.166,-0.359C-3.179,-0.435 -3.187,-0.484 -3.19,-0.512C-3.194,-0.537 -3.207,-0.589 -3.227,-0.662C-3.247,-0.73 -3.268,-0.815 -3.291,-0.912C-3.315,-1.004 -3.34,-1.101 -3.364,-1.202C-3.388,-1.299 -3.408,-1.388 -3.425,-1.468C-3.452,-1.597 -3.433,-1.67 -3.359,-1.682C-3.312,-1.694 -3.275,-1.658 -3.259,-1.581C-3.251,-1.537 -3.239,-1.493 -3.223,-1.448C-3.211,-1.399 -3.187,-1.335 -3.15,-1.25C-3.077,-1.069 -2.952,-0.972 -2.771,-0.968C-2.585,-0.964 -2.388,-0.972 -2.178,-0.988L5.216,-1.621C5.349,-1.629 5.421,-1.601 5.437,-1.529C5.457,-1.436 5.413,-1.347 5.312,-1.263L-0.855,3.594L6.68,5.53C6.812,5.57 6.886,5.619 6.897,5.679C6.918,5.764 6.829,5.841 6.635,5.909L0,8.067Z" style="fill:white;fill-rule:nonzero;"/>
        </g>
        <g transform="matrix(1,0,0,1,127.925,74.1557)">
            <path d="M0,-6.687C0.436,-6.695 0.786,-6.699 1.061,-6.703C1.335,-6.711 1.557,-6.715 1.727,-6.719C1.903,-6.719 2.041,-6.723 2.146,-6.731C2.246,-6.735 2.339,-6.743 2.428,-6.755C2.605,-6.775 2.746,-6.816 2.852,-6.868C2.956,-6.925 3.021,-7.05 3.045,-7.244C3.053,-7.288 3.058,-7.353 3.062,-7.437C3.062,-7.522 3.065,-7.59 3.062,-7.643C3.062,-7.703 3.094,-7.735 3.154,-7.74C3.219,-7.74 3.251,-7.675 3.251,-7.554C3.255,-7.421 3.255,-7.28 3.255,-7.135C3.251,-6.989 3.251,-6.856 3.255,-6.731L3.255,-6.393C3.251,-6.3 3.247,-6.239 3.247,-6.211C3.251,-6.183 3.255,-6.126 3.259,-6.033C3.263,-5.94 3.267,-5.836 3.271,-5.723C3.271,-5.598 3.274,-5.473 3.283,-5.348C3.291,-5.227 3.295,-5.118 3.295,-5.029C3.299,-4.9 3.267,-4.832 3.206,-4.832C3.142,-4.827 3.113,-4.864 3.109,-4.937L3.109,-5.065C3.109,-5.102 3.098,-5.154 3.077,-5.227C3.049,-5.376 2.984,-5.473 2.88,-5.521C2.778,-5.57 2.634,-5.602 2.448,-5.614C2.359,-5.622 2.267,-5.626 2.161,-5.63C2.061,-5.634 1.92,-5.63 1.746,-5.626C1.577,-5.626 1.355,-5.622 1.081,-5.618C0.807,-5.61 0.451,-5.606 0.02,-5.598L-1.562,-5.57C-1.969,-5.562 -2.319,-5.538 -2.614,-5.485C-2.912,-5.437 -3.167,-5.372 -3.385,-5.291C-3.599,-5.215 -3.779,-5.122 -3.921,-5.013C-4.066,-4.904 -4.195,-4.787 -4.309,-4.662C-4.558,-4.372 -4.72,-4.093 -4.792,-3.823C-4.86,-3.553 -4.893,-3.246 -4.889,-2.912C-4.881,-2.548 -4.805,-2.209 -4.651,-1.891C-4.502,-1.577 -4.3,-1.318 -4.058,-1.117C-3.728,-0.85 -3.332,-0.677 -2.876,-0.6C-2.416,-0.524 -1.9,-0.492 -1.312,-0.503L0.104,-0.528C0.54,-0.536 0.896,-0.54 1.17,-0.543C1.443,-0.552 1.665,-0.556 1.839,-0.564C2.013,-0.572 2.149,-0.581 2.25,-0.584C2.352,-0.592 2.448,-0.592 2.537,-0.596C2.714,-0.608 2.852,-0.64 2.96,-0.697C3.062,-0.753 3.126,-0.878 3.149,-1.072C3.158,-1.117 3.166,-1.181 3.17,-1.262C3.17,-1.35 3.174,-1.419 3.17,-1.467C3.17,-1.532 3.198,-1.564 3.263,-1.564C3.323,-1.564 3.355,-1.503 3.359,-1.383L3.359,-0.274C3.355,-0.189 3.355,-0.136 3.355,-0.121C3.355,-0.076 3.359,0.053 3.376,0.271C3.388,0.489 3.396,0.686 3.396,0.864C3.4,0.989 3.372,1.049 3.307,1.053C3.247,1.053 3.215,1.021 3.215,0.96C3.215,0.917 3.21,0.872 3.21,0.828C3.21,0.792 3.198,0.739 3.182,0.667C3.142,0.509 3.073,0.404 2.977,0.36C2.88,0.311 2.734,0.283 2.553,0.267C2.46,0.259 2.363,0.254 2.259,0.259C2.161,0.259 2.024,0.263 1.847,0.267C1.678,0.271 1.456,0.271 1.182,0.279C0.907,0.283 0.557,0.287 0.121,0.295L-1.085,0.32C-1.396,0.324 -1.71,0.315 -2.025,0.295C-2.34,0.271 -2.646,0.222 -2.94,0.15C-3.239,0.078 -3.521,-0.032 -3.792,-0.168C-4.058,-0.306 -4.292,-0.488 -4.489,-0.713C-4.679,-0.923 -4.828,-1.132 -4.937,-1.35C-5.05,-1.564 -5.135,-1.774 -5.195,-1.984C-5.26,-2.189 -5.296,-2.391 -5.32,-2.593C-5.341,-2.791 -5.353,-2.972 -5.356,-3.142C-5.356,-3.238 -5.356,-3.379 -5.349,-3.569C-5.345,-3.75 -5.316,-3.96 -5.269,-4.19C-5.22,-4.424 -5.143,-4.662 -5.042,-4.908C-4.937,-5.15 -4.796,-5.38 -4.603,-5.586C-4.47,-5.731 -4.324,-5.864 -4.15,-5.989C-3.981,-6.118 -3.784,-6.231 -3.554,-6.328C-3.324,-6.425 -3.054,-6.501 -2.747,-6.558C-2.44,-6.618 -2.073,-6.65 -1.658,-6.659L0,-6.687Z" style="fill:white;fill-rule:nonzero;"/>
        </g>
        <g transform="matrix(1,0,0,1,124.108,83.7405)">
            <path d="M0,-6.886C-0.229,-6.909 -0.419,-6.926 -0.576,-6.934C-0.733,-6.938 -0.863,-6.934 -0.968,-6.914C-1.077,-6.894 -1.157,-6.862 -1.214,-6.817C-1.271,-6.773 -1.311,-6.712 -1.343,-6.636C-1.383,-6.534 -1.415,-6.426 -1.443,-6.313C-1.468,-6.199 -1.484,-6.119 -1.496,-6.067C-1.504,-6.006 -1.541,-5.978 -1.602,-5.99C-1.662,-5.998 -1.682,-6.071 -1.657,-6.212C-1.609,-6.547 -1.561,-6.817 -1.517,-7.031C-1.468,-7.244 -1.443,-7.373 -1.436,-7.426C-1.428,-7.479 -1.411,-7.615 -1.392,-7.829C-1.371,-8.047 -1.343,-8.285 -1.303,-8.547C-1.286,-8.672 -1.242,-8.729 -1.182,-8.721C-1.121,-8.709 -1.097,-8.672 -1.105,-8.612C-1.109,-8.568 -1.117,-8.499 -1.125,-8.407C-1.129,-8.314 -1.125,-8.221 -1.109,-8.132C-1.105,-8.06 -1.077,-7.994 -1.032,-7.943C-0.988,-7.89 -0.911,-7.846 -0.811,-7.809C-0.71,-7.773 -0.576,-7.733 -0.407,-7.7C-0.233,-7.664 -0.024,-7.628 0.23,-7.587L6.619,-6.615C6.85,-6.579 6.998,-6.538 7.066,-6.498C7.136,-6.454 7.168,-6.413 7.16,-6.369C7.147,-6.301 7.1,-6.228 7.002,-6.159C6.905,-6.087 6.821,-6.027 6.752,-5.974C6.7,-5.938 6.543,-5.828 6.28,-5.643C6.015,-5.462 5.68,-5.232 5.28,-4.949C4.877,-4.671 4.429,-4.357 3.925,-4.001C3.425,-3.651 2.912,-3.283 2.388,-2.908C2.045,-2.666 1.702,-2.424 1.359,-2.187C1.013,-1.949 0.689,-1.723 0.388,-1.513C0.089,-1.303 -0.177,-1.121 -0.407,-0.964C-0.637,-0.807 -0.803,-0.69 -0.903,-0.617L4.707,0.121C5.066,0.165 5.324,0.173 5.481,0.145C5.639,0.112 5.748,0.015 5.809,-0.154C5.841,-0.259 5.873,-0.367 5.897,-0.481C5.926,-0.589 5.941,-0.67 5.945,-0.71C5.954,-0.755 5.97,-0.779 5.998,-0.783C6.026,-0.791 6.051,-0.791 6.066,-0.787C6.119,-0.779 6.136,-0.702 6.111,-0.553C6.07,-0.291 6.03,-0.04 5.981,0.193C5.937,0.427 5.913,0.581 5.901,0.653C5.889,0.721 5.873,0.846 5.856,1.02C5.841,1.198 5.812,1.403 5.776,1.637C5.756,1.778 5.72,1.843 5.667,1.835C5.647,1.835 5.627,1.819 5.603,1.795C5.583,1.77 5.574,1.734 5.583,1.689C5.583,1.666 5.591,1.63 5.599,1.585C5.603,1.541 5.603,1.484 5.599,1.411C5.595,1.31 5.574,1.234 5.538,1.174C5.502,1.113 5.449,1.064 5.381,1.028C5.309,0.992 5.216,0.96 5.106,0.931C4.994,0.907 4.853,0.879 4.687,0.854L-1.843,-0.17C-2.028,-0.199 -2.174,-0.222 -2.274,-0.242C-2.38,-0.263 -2.46,-0.279 -2.517,-0.295C-2.573,-0.307 -2.609,-0.319 -2.617,-0.335C-2.63,-0.351 -2.634,-0.367 -2.634,-0.383C-2.625,-0.411 -2.613,-0.44 -2.589,-0.472C-2.569,-0.505 -2.528,-0.549 -2.469,-0.606C-2.412,-0.666 -2.331,-0.739 -2.227,-0.827C-2.125,-0.912 -1.988,-1.025 -1.814,-1.158C-1.782,-1.182 -1.653,-1.279 -1.428,-1.456C-1.198,-1.63 -0.915,-1.84 -0.576,-2.086C-0.242,-2.327 0.125,-2.594 0.524,-2.884C0.92,-3.171 1.303,-3.445 1.662,-3.703C2.065,-3.982 2.457,-4.256 2.844,-4.522C3.231,-4.792 3.586,-5.042 3.909,-5.268C4.235,-5.494 4.521,-5.692 4.76,-5.857C4.998,-6.023 5.175,-6.139 5.284,-6.212L0,-6.886Z" style="fill:white;fill-rule:nonzero;"/>
        </g>
        <g transform="matrix(1,0,0,1,123.746,86.85)">
            <path d="M0,0.484C-0.528,0.331 -0.996,0.198 -1.404,0.085C-1.815,-0.024 -2.134,-0.105 -2.364,-0.141C-2.529,-0.169 -2.666,-0.177 -2.779,-0.162C-2.889,-0.15 -2.981,-0.061 -3.054,0.101C-3.098,0.181 -3.139,0.27 -3.175,0.371C-3.211,0.472 -3.239,0.548 -3.255,0.597C-3.271,0.658 -3.308,0.677 -3.368,0.662C-3.429,0.645 -3.441,0.577 -3.404,0.456C-3.36,0.302 -3.315,0.149 -3.264,-0.012C-3.211,-0.173 -3.167,-0.323 -3.122,-0.455C-3.078,-0.593 -3.042,-0.702 -3.014,-0.79C-2.981,-0.879 -2.965,-0.928 -2.965,-0.936C-2.961,-0.952 -2.945,-1.004 -2.925,-1.089C-2.904,-1.178 -2.88,-1.279 -2.853,-1.396C-2.824,-1.508 -2.791,-1.629 -2.764,-1.75C-2.73,-1.868 -2.707,-1.972 -2.683,-2.057C-2.65,-2.174 -2.602,-2.227 -2.541,-2.21C-2.481,-2.195 -2.461,-2.154 -2.477,-2.093C-2.493,-2.045 -2.505,-1.985 -2.514,-1.92C-2.521,-1.852 -2.529,-1.791 -2.525,-1.735C-2.529,-1.618 -2.489,-1.529 -2.404,-1.464C-2.315,-1.404 -2.194,-1.339 -2.037,-1.279C-1.823,-1.186 -1.513,-1.081 -1.105,-0.952C-0.702,-0.827 -0.234,-0.69 0.294,-0.537L2.206,0.012C2.625,0.133 2.964,0.234 3.227,0.31C3.492,0.383 3.702,0.448 3.863,0.492C4.037,0.541 4.171,0.581 4.268,0.605C4.368,0.625 4.461,0.645 4.55,0.662C4.739,0.698 4.889,0.706 4.993,0.681C5.098,0.653 5.179,0.585 5.239,0.476C5.275,0.412 5.304,0.351 5.328,0.295C5.344,0.234 5.364,0.181 5.376,0.141C5.393,0.081 5.433,0.06 5.489,0.077C5.55,0.092 5.562,0.161 5.529,0.282C5.501,0.375 5.469,0.484 5.429,0.605C5.389,0.726 5.353,0.843 5.32,0.956C5.288,1.073 5.255,1.173 5.227,1.258C5.199,1.343 5.183,1.391 5.179,1.408C5.175,1.416 5.162,1.468 5.139,1.557C5.118,1.65 5.09,1.751 5.062,1.859C5.025,1.98 4.993,2.101 4.961,2.226C4.929,2.351 4.904,2.457 4.876,2.541C4.844,2.658 4.796,2.711 4.739,2.694C4.679,2.674 4.658,2.638 4.675,2.578L4.711,2.448C4.723,2.416 4.727,2.364 4.731,2.291C4.739,2.13 4.707,2.008 4.638,1.936C4.565,1.868 4.437,1.795 4.243,1.722C4.158,1.698 4.065,1.666 3.973,1.633C3.876,1.601 3.738,1.561 3.573,1.512C3.408,1.468 3.198,1.408 2.932,1.331C2.67,1.255 2.327,1.154 1.912,1.037L0,0.484Z" style="fill:white;fill-rule:nonzero;"/>
        </g>
        <g transform="matrix(1,0,0,1,121.931,94.3481)">
            <path d="M0,-1.896C-0.509,-2.101 -0.964,-2.279 -1.359,-2.432C-1.755,-2.589 -2.065,-2.695 -2.287,-2.759C-2.448,-2.803 -2.59,-2.819 -2.702,-2.807C-2.815,-2.799 -2.921,-2.714 -3.009,-2.561C-3.058,-2.493 -3.102,-2.408 -3.154,-2.311C-3.202,-2.21 -3.239,-2.138 -3.255,-2.085C-3.279,-2.029 -3.319,-2.012 -3.38,-2.037C-3.437,-2.057 -3.44,-2.125 -3.396,-2.243C-3.336,-2.392 -3.271,-2.541 -3.207,-2.69C-3.143,-2.839 -3.082,-2.977 -3.029,-3.102C-2.973,-3.231 -2.925,-3.335 -2.888,-3.42C-2.848,-3.505 -2.823,-3.553 -2.819,-3.57C-2.812,-3.585 -2.791,-3.638 -2.763,-3.727C-2.73,-3.816 -2.698,-3.92 -2.65,-4.042C-2.609,-4.163 -2.565,-4.28 -2.521,-4.405C-2.477,-4.521 -2.44,-4.623 -2.404,-4.708C-2.359,-4.824 -2.308,-4.869 -2.251,-4.844C-2.202,-4.824 -2.187,-4.788 -2.21,-4.727C-2.23,-4.679 -2.247,-4.623 -2.263,-4.566C-2.279,-4.505 -2.287,-4.445 -2.291,-4.388C-2.315,-4.263 -2.283,-4.163 -2.198,-4.082C-2.117,-4.001 -2.001,-3.92 -1.852,-3.84C-1.649,-3.731 -1.352,-3.594 -0.956,-3.432C-0.564,-3.271 -0.113,-3.085 0.396,-2.879L4.796,-1.117L5.396,-2.69C5.53,-3.038 5.599,-3.299 5.614,-3.468C5.631,-3.638 5.595,-3.788 5.506,-3.92C5.441,-4.021 5.389,-4.09 5.353,-4.126C5.312,-4.163 5.275,-4.195 5.239,-4.227C5.183,-4.271 5.163,-4.32 5.187,-4.376C5.195,-4.392 5.207,-4.409 5.224,-4.417C5.243,-4.433 5.268,-4.429 5.304,-4.417C5.328,-4.409 5.393,-4.368 5.498,-4.295C5.603,-4.223 5.711,-4.151 5.828,-4.07C5.945,-3.989 6.055,-3.913 6.155,-3.844C6.256,-3.775 6.316,-3.739 6.341,-3.727C6.369,-3.699 6.405,-3.663 6.445,-3.622C6.486,-3.582 6.502,-3.553 6.494,-3.538C6.478,-3.497 6.441,-3.449 6.381,-3.396C6.324,-3.343 6.256,-3.247 6.18,-3.106C6.099,-2.957 6.022,-2.799 5.945,-2.629C5.869,-2.46 5.816,-2.343 5.788,-2.275L4.146,1.815C4.073,1.997 4.018,2.15 3.977,2.275C3.933,2.404 3.904,2.513 3.884,2.61C3.868,2.699 3.852,2.771 3.844,2.824C3.832,2.876 3.819,2.916 3.812,2.941C3.796,2.973 3.751,2.973 3.667,2.941C3.586,2.904 3.484,2.864 3.359,2.807C3.239,2.755 3.118,2.703 3.001,2.65C2.884,2.598 2.779,2.549 2.683,2.509C2.586,2.464 2.521,2.436 2.488,2.42C2.396,2.384 2.363,2.332 2.392,2.271C2.399,2.247 2.42,2.231 2.448,2.231C2.48,2.226 2.533,2.235 2.609,2.259L2.727,2.291C2.812,2.315 2.896,2.32 2.977,2.303C3.058,2.291 3.146,2.247 3.239,2.174C3.327,2.097 3.42,1.985 3.521,1.828C3.614,1.67 3.719,1.464 3.828,1.214L4.396,-0.129L0,-1.896Z" style="fill:white;fill-rule:nonzero;"/>
        </g>
        <g transform="matrix(1,0,0,1,119.204,93.8935)">
            <path d="M0,4.879C-0.017,4.912 0,4.936 0.049,4.952L3.319,5.428C3.501,5.448 3.533,5.388 3.412,5.25L1.227,2.811C1.186,2.77 1.157,2.766 1.138,2.807L0,4.879ZM4.747,5.997C4.877,6.15 4.953,6.255 4.985,6.312C5.014,6.368 5.018,6.412 4.997,6.452C4.97,6.509 4.913,6.529 4.832,6.522C4.752,6.513 4.643,6.505 4.501,6.501C4.417,6.493 4.215,6.473 3.9,6.437C3.59,6.4 3.211,6.356 2.767,6.308C2.327,6.255 1.844,6.198 1.315,6.138C0.791,6.077 0.271,6.017 -0.242,5.956C-0.754,5.9 -1.242,5.844 -1.702,5.787C-2.162,5.731 -2.545,5.691 -2.852,5.662C-3.126,5.634 -3.355,5.622 -3.529,5.63C-3.707,5.642 -3.856,5.662 -3.973,5.694C-4.09,5.723 -4.183,5.763 -4.247,5.807C-4.312,5.852 -4.368,5.896 -4.413,5.944C-4.478,6.009 -4.533,6.073 -4.582,6.138C-4.627,6.202 -4.663,6.263 -4.695,6.319C-4.711,6.348 -4.731,6.376 -4.76,6.396C-4.788,6.416 -4.816,6.42 -4.849,6.404C-4.877,6.384 -4.885,6.348 -4.872,6.295C-4.856,6.243 -4.832,6.187 -4.8,6.126C-4.78,6.085 -4.739,6.013 -4.679,5.904C-4.622,5.803 -4.554,5.674 -4.469,5.517C-4.389,5.371 -4.3,5.21 -4.195,5.041C-4.099,4.867 -3.993,4.693 -3.889,4.521C-3.828,4.424 -3.775,4.339 -3.731,4.275C-3.69,4.206 -3.654,4.178 -3.622,4.198C-3.598,4.21 -3.59,4.222 -3.59,4.234C-3.594,4.25 -3.594,4.275 -3.59,4.307C-3.59,4.343 -3.582,4.392 -3.565,4.448C-3.542,4.504 -3.481,4.536 -3.376,4.545L-0.597,4.867C-0.549,4.867 -0.512,4.847 -0.492,4.807L0.807,2.443C0.831,2.399 0.823,2.347 0.782,2.294L-0.484,0.846C-0.694,0.6 -0.884,0.427 -1.064,0.329C-1.166,0.274 -1.255,0.274 -1.335,0.325C-1.412,0.378 -1.477,0.446 -1.524,0.531L-1.573,0.624C-1.613,0.692 -1.657,0.713 -1.714,0.685C-1.767,0.656 -1.767,0.588 -1.71,0.491C-1.678,0.427 -1.634,0.35 -1.577,0.261L-1.412,-0.014C-1.359,-0.106 -1.307,-0.186 -1.263,-0.26C-1.218,-0.328 -1.19,-0.38 -1.174,-0.412C-1.162,-0.433 -1.134,-0.485 -1.102,-0.561C-1.061,-0.635 -1.021,-0.723 -0.972,-0.824C-0.92,-0.921 -0.867,-1.029 -0.811,-1.142C-0.75,-1.26 -0.694,-1.364 -0.638,-1.466C-0.568,-1.599 -0.504,-1.65 -0.447,-1.623C-0.396,-1.59 -0.383,-1.542 -0.419,-1.481C-0.439,-1.445 -0.464,-1.392 -0.496,-1.328C-0.524,-1.264 -0.549,-1.211 -0.561,-1.167C-0.657,-0.917 -0.657,-0.686 -0.561,-0.477C-0.464,-0.267 -0.318,-0.046 -0.125,0.192L4.747,5.997Z" style="fill:white;fill-rule:nonzero;"/>
        </g>
        <g transform="matrix(1,0,0,1,117.046,104.348)">
            <path d="M0,-0.86C-0.048,-0.896 -0.104,-0.905 -0.165,-0.884C-0.214,-0.864 -0.271,-0.824 -0.335,-0.763C-0.403,-0.703 -0.479,-0.631 -0.564,-0.546C-0.649,-0.461 -0.738,-0.364 -0.823,-0.263C-0.907,-0.163 -0.992,-0.057 -1.073,0.047C-1.153,0.161 -1.238,0.282 -1.311,0.414C-1.388,0.547 -1.428,0.697 -1.436,0.87C-1.448,1.113 -1.379,1.374 -1.222,1.653C-1.068,1.935 -0.818,2.205 -0.468,2.463C0.101,2.887 0.646,3.069 1.17,3.008C1.69,2.952 2.138,2.669 2.513,2.165C2.622,2.024 2.715,1.887 2.8,1.749C2.884,1.613 2.937,1.516 2.961,1.455C2.969,1.386 2.953,1.334 2.912,1.302L0,-0.86ZM1.371,-1.098C1.715,-0.84 2.001,-0.631 2.223,-0.464C2.44,-0.303 2.618,-0.171 2.755,-0.07C2.896,0.036 3.009,0.116 3.094,0.172C3.179,0.233 3.259,0.282 3.336,0.329C3.505,0.431 3.643,0.487 3.751,0.503C3.86,0.519 3.985,0.459 4.122,0.318C4.154,0.286 4.199,0.241 4.256,0.176C4.308,0.108 4.348,0.055 4.381,0.011C4.417,-0.038 4.461,-0.046 4.51,-0.006C4.558,0.032 4.55,0.1 4.474,0.201C4.393,0.305 4.308,0.418 4.211,0.539C4.118,0.664 4.029,0.778 3.949,0.882C3.868,0.992 3.8,1.08 3.735,1.157C3.675,1.229 3.639,1.278 3.63,1.289C3.614,1.31 3.569,1.374 3.501,1.475C3.429,1.58 3.348,1.689 3.259,1.81C3.17,1.931 3.082,2.056 2.993,2.181C2.904,2.306 2.832,2.408 2.779,2.48C2.558,2.778 2.308,3.065 2.033,3.339C1.755,3.613 1.444,3.811 1.085,3.936C1.001,3.96 0.896,3.98 0.767,4C0.634,4.021 0.492,4.025 0.335,4.012C0.178,4 0.017,3.968 -0.149,3.915C-0.314,3.864 -0.479,3.783 -0.633,3.665C-0.968,3.415 -1.242,3.084 -1.452,2.665C-1.666,2.249 -1.799,1.685 -1.843,0.979C-2.613,1.003 -3.319,1.032 -3.957,1.06C-4.598,1.092 -5.163,1.136 -5.646,1.197C-6.087,1.253 -6.405,1.338 -6.603,1.447C-6.797,1.556 -6.949,1.661 -7.051,1.774C-7.135,1.855 -7.195,1.919 -7.236,1.967C-7.276,2.012 -7.309,2.052 -7.329,2.08C-7.373,2.137 -7.418,2.149 -7.466,2.109C-7.494,2.088 -7.502,2.056 -7.49,2.02C-7.478,1.98 -7.437,1.915 -7.377,1.83L-6.941,1.245C-6.74,0.975 -6.574,0.782 -6.441,0.664C-6.309,0.543 -6.167,0.451 -6.014,0.378C-5.756,0.249 -5.445,0.176 -5.082,0.148C-4.723,0.124 -4.271,0.104 -3.73,0.088C-3.537,0.079 -3.336,0.076 -3.13,0.072C-2.928,0.068 -2.73,0.068 -2.549,0.064L-2.041,0.064C-1.888,0.064 -1.759,0.06 -1.657,0.06C-1.598,0.047 -1.549,0.019 -1.509,-0.029L-0.601,-1.207C-0.568,-1.252 -0.576,-1.292 -0.629,-1.328L-0.843,-1.485C-1.282,-1.812 -1.674,-2.102 -2.013,-2.348C-2.352,-2.594 -2.626,-2.776 -2.823,-2.893C-2.969,-2.978 -3.102,-3.03 -3.215,-3.043C-3.332,-3.058 -3.452,-3.002 -3.581,-2.877C-3.642,-2.825 -3.711,-2.756 -3.779,-2.675C-3.848,-2.594 -3.9,-2.534 -3.933,-2.494C-3.969,-2.441 -4.014,-2.437 -4.062,-2.473C-4.11,-2.509 -4.098,-2.579 -4.025,-2.679C-3.929,-2.804 -3.832,-2.933 -3.73,-3.062C-3.63,-3.191 -3.537,-3.308 -3.452,-3.418C-3.364,-3.526 -3.295,-3.611 -3.234,-3.683C-3.175,-3.756 -3.142,-3.797 -3.138,-3.804C-3.041,-3.95 -2.956,-4.075 -2.888,-4.172C-2.823,-4.272 -2.751,-4.378 -2.674,-4.486C-2.598,-4.595 -2.533,-4.684 -2.48,-4.756C-2.408,-4.853 -2.344,-4.885 -2.295,-4.849C-2.246,-4.813 -2.242,-4.768 -2.274,-4.72C-2.307,-4.675 -2.339,-4.628 -2.371,-4.567C-2.403,-4.51 -2.432,-4.454 -2.448,-4.402C-2.496,-4.293 -2.488,-4.196 -2.424,-4.107C-2.359,-4.022 -2.271,-3.922 -2.149,-3.797C-1.984,-3.631 -1.734,-3.422 -1.396,-3.164C-1.061,-2.905 -0.669,-2.615 -0.229,-2.288L1.371,-1.098Z" style="fill:white;fill-rule:nonzero;"/>
        </g>
        <g transform="matrix(1,0,0,1,111.303,109.417)">
            <path d="M0,-0.552C-0.404,-0.927 -0.763,-1.254 -1.077,-1.54C-1.392,-1.827 -1.646,-2.036 -1.832,-2.174C-1.965,-2.275 -2.086,-2.343 -2.19,-2.379C-2.296,-2.416 -2.417,-2.379 -2.558,-2.267C-2.631,-2.214 -2.707,-2.15 -2.783,-2.081C-2.864,-2.008 -2.921,-1.952 -2.957,-1.911C-2.997,-1.867 -3.042,-1.867 -3.09,-1.907C-3.135,-1.948 -3.114,-2.017 -3.029,-2.106C-2.921,-2.226 -2.808,-2.343 -2.691,-2.464C-2.574,-2.585 -2.465,-2.695 -2.368,-2.795L-2.118,-3.045C-2.05,-3.11 -2.018,-3.146 -2.009,-3.154C-1.997,-3.166 -1.965,-3.206 -1.908,-3.271C-1.848,-3.344 -1.779,-3.42 -1.703,-3.513C-1.626,-3.602 -1.546,-3.695 -1.465,-3.791C-1.384,-3.884 -1.315,-3.96 -1.251,-4.03C-1.17,-4.118 -1.105,-4.142 -1.062,-4.102C-1.013,-4.058 -1.013,-4.013 -1.054,-3.969C-1.09,-3.928 -1.126,-3.884 -1.166,-3.827C-1.206,-3.775 -1.238,-3.719 -1.259,-3.67C-1.315,-3.57 -1.319,-3.469 -1.271,-3.371C-1.223,-3.28 -1.138,-3.17 -1.029,-3.041C-0.88,-2.864 -0.646,-2.629 -0.344,-2.335C-0.037,-2.036 0.318,-1.706 0.718,-1.331L2.182,0.02C2.5,0.315 2.763,0.557 2.96,0.742C3.162,0.927 3.327,1.077 3.448,1.194C3.581,1.315 3.682,1.404 3.759,1.472C3.84,1.537 3.912,1.597 3.984,1.65C4.138,1.771 4.267,1.844 4.372,1.864C4.477,1.887 4.582,1.864 4.683,1.795C4.747,1.755 4.799,1.711 4.844,1.67C4.888,1.626 4.929,1.59 4.957,1.557C4.997,1.512 5.042,1.509 5.09,1.553C5.134,1.594 5.114,1.662 5.029,1.751C4.965,1.823 4.884,1.904 4.795,1.997C4.707,2.086 4.622,2.175 4.541,2.259C4.461,2.351 4.384,2.425 4.323,2.489C4.259,2.55 4.219,2.59 4.206,2.597C4.202,2.606 4.17,2.646 4.109,2.719C4.049,2.787 3.98,2.868 3.904,2.949C3.819,3.042 3.734,3.135 3.649,3.235C3.565,3.332 3.492,3.413 3.437,3.477C3.352,3.566 3.287,3.59 3.238,3.55C3.194,3.51 3.19,3.465 3.234,3.417C3.263,3.385 3.295,3.352 3.323,3.32C3.348,3.296 3.38,3.252 3.412,3.186C3.496,3.046 3.521,2.925 3.488,2.832C3.456,2.735 3.372,2.61 3.234,2.461C3.17,2.4 3.102,2.332 3.032,2.263C2.96,2.19 2.855,2.094 2.727,1.972C2.605,1.855 2.439,1.707 2.242,1.521C2.04,1.336 1.778,1.094 1.46,0.799L0,-0.552Z" style="fill:white;fill-rule:nonzero;"/>
        </g>
        <g transform="matrix(1,0,0,1,108.927,117.012)">
            <path d="M0,-6.287C-0.48,-6.569 -0.969,-6.747 -1.461,-6.815C-1.956,-6.889 -2.44,-6.856 -2.908,-6.719C-3.38,-6.582 -3.816,-6.344 -4.224,-6.001C-4.425,-5.832 -4.635,-5.594 -4.849,-5.291C-5.062,-4.988 -5.207,-4.63 -5.284,-4.206C-5.36,-3.778 -5.328,-3.303 -5.18,-2.77C-5.034,-2.242 -4.699,-1.665 -4.175,-1.044C-3.739,-0.527 -3.283,-0.132 -2.804,0.138C-2.323,0.412 -1.852,0.578 -1.38,0.634C-0.912,0.687 -0.46,0.65 -0.024,0.513C0.411,0.376 0.807,0.162 1.157,-0.137C1.528,-0.447 1.823,-0.798 2.036,-1.181C2.251,-1.564 2.376,-1.968 2.403,-2.394C2.436,-2.818 2.367,-3.263 2.198,-3.722C2.028,-4.182 1.75,-4.645 1.355,-5.113C0.932,-5.613 0.479,-6.005 0,-6.287M2.812,-4.835C3.005,-4.323 3.102,-3.778 3.094,-3.202C3.09,-2.625 2.956,-2.036 2.698,-1.439C2.436,-0.846 1.996,-0.285 1.379,0.231C0.879,0.654 0.351,0.973 -0.21,1.191C-0.767,1.404 -1.323,1.505 -1.876,1.493C-2.424,1.478 -2.961,1.344 -3.473,1.094C-3.989,0.848 -4.461,0.473 -4.881,-0.027C-5.288,-0.508 -5.587,-1.036 -5.776,-1.612C-5.966,-2.185 -6.038,-2.766 -5.994,-3.343C-5.949,-3.924 -5.784,-4.496 -5.498,-5.058C-5.212,-5.618 -4.804,-6.118 -4.268,-6.569C-3.658,-7.086 -3.046,-7.425 -2.433,-7.586C-1.819,-7.752 -1.234,-7.792 -0.67,-7.699C-0.109,-7.614 0.407,-7.425 0.883,-7.135C1.355,-6.848 1.759,-6.509 2.081,-6.126C2.376,-5.779 2.617,-5.351 2.812,-4.835" style="fill:white;fill-rule:nonzero;"/>
        </g>
        <g transform="matrix(-1,0,0,1,72.1123,116.899)">
            <path d="M0,-7.498C-11.742,-7.498 -22.342,-4.618 -29.84,0C-21.531,-2.92 -11.201,-4.65 0,-4.65C11.201,-4.65 21.535,-2.92 29.84,0C22.341,-4.618 11.746,-7.498 0,-7.498" style="fill:white;"/>
        </g>
    </g>
</svg>
